{
  "source": "C:\\Users\\Peter\\Desktop\\stuff\\MIUN\\quantitative_research\\video_compression\\videos\\HEVC_CLASS_B\\BasketballDrive_1920x1080_50.y4m",
  "output": "C:\\Users\\Peter\\Desktop\\stuff\\MIUN\\quantitative_research\\video_compression\\compressed_videos\\HEVC_CLASS_B\\vp9\\12\\BasketballDrive_1920x1080_50_vp9.webm",
  "codec": "vp9",
  "ok": "Input #0, yuv4mpegpipe, from 'C:\\Users\\Peter\\Desktop\\stuff\\MIUN\\quantitative_research\\video_compression\\videos\\HEVC_CLASS_B\\BasketballDrive_1920x1080_50.y4m':\n  Duration: 00:00:10.00, start: 0.000000, bitrate: 1244162 kb/s\n  Stream #0:0: Video: rawvideo (I420 / 0x30323449), yuv420p(progressive), 1920x1080, 50 fps, 50 tbr, 50 tbn\n[out#0/webm @ 000001e104dd6d00] Codec AVOption b:a (set bitrate (in bits/s)) has not been used for any stream. The most likely reason is either wrong type (e.g. a video option with no video streams) or that it is a private option of some decoder which was not actually used for any stream.\nStream mapping:\n  Stream #0:0 -> #0:0 (rawvideo (native) -> vp9 (libvpx-vp9))\nPress [q] to stop, [?] for help\n[libvpx-vp9 @ 000001e104ddd280] v1.15.2-100-g40561f514\nOutput #0, webm, to 'C:\\Users\\Peter\\Desktop\\stuff\\MIUN\\quantitative_research\\video_compression\\compressed_videos\\HEVC_CLASS_B\\vp9\\12\\BasketballDrive_1920x1080_50_vp9.webm':\n  Metadata:\n    encoder         : Lavf62.3.100\n  Stream #0:0: Video: vp9, yuv420p(tv, progressive), 1920x1080, q=2-31, 12000 kb/s, 50 fps, 1k tbn\n    Metadata:\n      encoder         : Lavc62.11.100 libvpx-vp9\n    Side data:\n      cpb: bitrate max/min/avg: 0/0/0 buffer size: 12000000 vbv_delay: N/A\nframe=    0 fps=0.0 q=0.0 size=       0KiB time=N/A bitrate=N/A speed=N/A elapsed=0:00:00.51    \nframe=    0 fps=0.0 q=0.0 size=       0KiB time=N/A bitrate=N/A speed=N/A elapsed=0:00:01.06    \nframe=    1 fps=0.6 q=12.0 size=       0KiB time=00:00:00.02 bitrate= 192.8kbits/s speed=0.0124x elapsed=0:00:01.60    \nframe=    2 fps=0.9 q=23.0 size=       0KiB time=00:00:00.04 bitrate=  96.4kbits/s speed=0.0189x elapsed=0:00:02.11    \nframe=    5 fps=1.8 q=37.0 size=       0KiB time=00:00:00.10 bitrate=  38.6kbits/s speed=0.0359x elapsed=0:00:02.78    \nframe=    7 fps=2.0 q=35.0 size=       0KiB time=00:00:00.14 bitrate=  27.5kbits/s speed=0.0402x elapsed=0:00:03.48    \nframe=   10 fps=2.4 q=33.0 size=       0KiB time=00:00:00.18 bitrate=  21.4kbits/s speed=0.0438x elapsed=0:00:04.11    \nframe=   11 fps=2.1 q=33.0 size=       0KiB time=00:00:00.22 bitrate=  17.5kbits/s speed=0.0424x elapsed=0:00:05.19    \nframe=   12 fps=2.0 q=20.0 size=       0KiB time=00:00:00.24 bitrate=  16.1kbits/s speed=0.039x elapsed=0:00:06.15    \nframe=   14 fps=2.0 q=31.0 size=       0KiB time=00:00:00.26 bitrate=  14.8kbits/s speed=0.0373x elapsed=0:00:06.97    \nframe=   15 fps=1.9 q=30.0 size=       0KiB time=00:00:00.30 bitrate=  12.9kbits/s speed=0.0373x elapsed=0:00:08.04    \nframe=   16 fps=1.9 q=30.0 size=       0KiB time=00:00:00.32 bitrate=  12.1kbits/s speed=0.0373x elapsed=0:00:08.57    \nframe=   17 fps=1.9 q=30.0 size=       0KiB time=00:00:00.34 bitrate=  11.3kbits/s speed=0.0374x elapsed=0:00:09.08    \nframe=   18 fps=1.9 q=30.0 size=       0KiB time=00:00:00.36 bitrate=  10.7kbits/s speed=0.0373x elapsed=0:00:09.64    \nframe=   19 fps=1.9 q=30.0 size=       0KiB time=00:00:00.38 bitrate=  10.1kbits/s speed=0.0374x elapsed=0:00:10.15    \nframe=   20 fps=1.9 q=30.0 size=       0KiB time=00:00:00.40 bitrate=   9.6kbits/s speed=0.0372x elapsed=0:00:10.75    \nframe=   21 fps=1.9 q=30.0 size=       0KiB time=00:00:00.42 bitrate=   9.2kbits/s speed=0.0373x elapsed=0:00:11.27    \nframe=   21 fps=1.8 q=30.0 size=       0KiB time=00:00:00.42 bitrate=   9.2kbits/s speed=0.0356x elapsed=0:00:11.80    \nframe=   21 fps=1.7 q=30.0 size=       0KiB time=00:00:00.42 bitrate=   9.2kbits/s speed=0.034x elapsed=0:00:12.33    \nframe=   22 fps=1.7 q=31.0 size=       0KiB time=00:00:00.44 bitrate=   8.8kbits/s speed=0.0342x elapsed=0:00:12.86    \nframe=   22 fps=1.6 q=31.0 size=       0KiB time=00:00:00.44 bitrate=   8.8kbits/s speed=0.0328x elapsed=0:00:13.40    \nframe=   22 fps=1.6 q=31.0 size=       0KiB time=00:00:00.44 bitrate=   8.8kbits/s speed=0.0316x elapsed=0:00:13.93    \nframe=   22 fps=1.5 q=31.0 size=       0KiB time=00:00:00.44 bitrate=   8.8kbits/s speed=0.0304x elapsed=0:00:14.46    \nframe=   22 fps=1.5 q=31.0 size=       0KiB time=00:00:00.44 bitrate=   8.8kbits/s speed=0.0294x elapsed=0:00:14.98    \nframe=   23 fps=1.5 q=15.0 size=       0KiB time=00:00:00.46 bitrate=   8.4kbits/s speed=0.0297x elapsed=0:00:15.51    \nframe=   23 fps=1.4 q=15.0 size=       0KiB time=00:00:00.46 bitrate=   8.4kbits/s speed=0.0287x elapsed=0:00:16.04    \nframe=   24 fps=1.4 q=31.0 size=       0KiB time=00:00:00.48 bitrate=   8.0kbits/s speed=0.029x elapsed=0:00:16.57    \nframe=   24 fps=1.4 q=31.0 size=       0KiB time=00:00:00.48 bitrate=   8.0kbits/s speed=0.0281x elapsed=0:00:17.10    \nframe=   25 fps=1.4 q=30.0 size=       0KiB time=00:00:00.50 bitrate=   7.7kbits/s speed=0.0284x elapsed=0:00:17.61    \nframe=   25 fps=1.4 q=30.0 size=       0KiB time=00:00:00.50 bitrate=   7.7kbits/s speed=0.0275x elapsed=0:00:18.15    \nframe=   25 fps=1.3 q=30.0 size=       0KiB time=00:00:00.50 bitrate=   7.7kbits/s speed=0.0268x elapsed=0:00:18.67    \nframe=   26 fps=1.4 q=31.0 size=       0KiB time=00:00:00.52 bitrate=   7.4kbits/s speed=0.0271x elapsed=0:00:19.19    \nframe=   26 fps=1.3 q=31.0 size=       0KiB time=00:00:00.52 bitrate=   7.4kbits/s speed=0.0264x elapsed=0:00:19.72    \nframe=   27 fps=1.3 q=31.0 size=       0KiB time=00:00:00.54 bitrate=   7.1kbits/s speed=0.0267x elapsed=0:00:20.24    \nframe=   27 fps=1.3 q=31.0 size=       0KiB time=00:00:00.54 bitrate=   7.1kbits/s speed=0.026x elapsed=0:00:20.76    \nframe=   28 fps=1.3 q=32.0 size=       0KiB time=00:00:00.56 bitrate=   6.9kbits/s speed=0.0263x elapsed=0:00:21.27    \nframe=   29 fps=1.3 q=32.0 size=       0KiB time=00:00:00.58 bitrate=   6.6kbits/s speed=0.0266x elapsed=0:00:21.78    \nframe=   29 fps=1.3 q=32.0 size=       0KiB time=00:00:00.58 bitrate=   6.6kbits/s speed=0.026x elapsed=0:00:22.31    \nframe=   30 fps=1.3 q=33.0 size=       0KiB time=00:00:00.60 bitrate=   6.4kbits/s speed=0.0263x elapsed=0:00:22.82    \nframe=   30 fps=1.3 q=33.0 size=       0KiB time=00:00:00.60 bitrate=   6.4kbits/s speed=0.0257x elapsed=0:00:23.35    \nframe=   31 fps=1.3 q=33.0 size=       0KiB time=00:00:00.62 bitrate=   6.2kbits/s speed=0.026x elapsed=0:00:23.86    \nframe=   31 fps=1.3 q=33.0 size=       0KiB time=00:00:00.62 bitrate=   6.2kbits/s speed=0.0254x elapsed=0:00:24.38    \nframe=   32 fps=1.3 q=33.0 size=       0KiB time=00:00:00.64 bitrate=   6.0kbits/s speed=0.0257x elapsed=0:00:24.90    \nframe=   32 fps=1.3 q=33.0 size=       0KiB time=00:00:00.64 bitrate=   6.0kbits/s speed=0.0252x elapsed=0:00:25.43    \nframe=   33 fps=1.3 q=33.0 size=       0KiB time=00:00:00.66 bitrate=   5.8kbits/s speed=0.0254x elapsed=0:00:25.94    \nframe=   33 fps=1.2 q=33.0 size=       0KiB time=00:00:00.66 bitrate=   5.8kbits/s speed=0.0249x elapsed=0:00:26.46    \nframe=   33 fps=1.2 q=33.0 size=       0KiB time=00:00:00.66 bitrate=   5.8kbits/s speed=0.0245x elapsed=0:00:26.97    \nframe=   33 fps=1.2 q=33.0 size=       0KiB time=00:00:00.66 bitrate=   5.8kbits/s speed=0.024x elapsed=0:00:27.49    \nframe=   34 fps=1.2 q=17.0 size=       0KiB time=00:00:00.68 bitrate=   5.7kbits/s speed=0.0243x elapsed=0:00:28.01    \nframe=   35 fps=1.2 q=31.0 size=       0KiB time=00:00:00.70 bitrate=   5.5kbits/s speed=0.0245x elapsed=0:00:28.53    \nframe=   35 fps=1.2 q=31.0 size=       0KiB time=00:00:00.70 bitrate=   5.5kbits/s speed=0.0241x elapsed=0:00:29.04    \nframe=   36 fps=1.2 q=31.0 size=       0KiB time=00:00:00.72 bitrate=   5.4kbits/s speed=0.0244x elapsed=0:00:29.55    \nframe=   37 fps=1.2 q=31.0 size=       0KiB time=00:00:00.74 bitrate=   5.2kbits/s speed=0.0246x elapsed=0:00:30.08    \nframe=   37 fps=1.2 q=31.0 size=       0KiB time=00:00:00.74 bitrate=   5.2kbits/s speed=0.0242x elapsed=0:00:30.60    \nframe=   38 fps=1.2 q=32.0 size=       0KiB time=00:00:00.76 bitrate=   5.1kbits/s speed=0.0244x elapsed=0:00:31.13    \nframe=   38 fps=1.2 q=32.0 size=       0KiB time=00:00:00.76 bitrate=   5.1kbits/s speed=0.024x elapsed=0:00:31.66    \nframe=   39 fps=1.2 q=32.0 size=       0KiB time=00:00:00.78 bitrate=   4.9kbits/s speed=0.0242x elapsed=0:00:32.20    \nframe=   39 fps=1.2 q=32.0 size=       0KiB time=00:00:00.78 bitrate=   4.9kbits/s speed=0.0238x elapsed=0:00:32.73    \nframe=   40 fps=1.2 q=32.0 size=       0KiB time=00:00:00.80 bitrate=   4.8kbits/s speed=0.0241x elapsed=0:00:33.26    \nframe=   40 fps=1.2 q=32.0 size=       0KiB time=00:00:00.80 bitrate=   4.8kbits/s speed=0.0237x elapsed=0:00:33.77    \nframe=   41 fps=1.2 q=32.0 size=       0KiB time=00:00:00.82 bitrate=   4.7kbits/s speed=0.0239x elapsed=0:00:34.28    \nframe=   42 fps=1.2 q=32.0 size=       0KiB time=00:00:00.84 bitrate=   4.6kbits/s speed=0.0241x elapsed=0:00:34.80    \nframe=   42 fps=1.2 q=32.0 size=       0KiB time=00:00:00.84 bitrate=   4.6kbits/s speed=0.0238x elapsed=0:00:35.32    \nframe=   43 fps=1.2 q=33.0 size=       0KiB time=00:00:00.86 bitrate=   4.5kbits/s speed=0.024x elapsed=0:00:35.83    \nframe=   43 fps=1.2 q=33.0 size=       0KiB time=00:00:00.86 bitrate=   4.5kbits/s speed=0.0237x elapsed=0:00:36.35    \nframe=   44 fps=1.2 q=33.0 size=       0KiB time=00:00:00.88 bitrate=   4.4kbits/s speed=0.0239x elapsed=0:00:36.86    \nframe=   44 fps=1.2 q=33.0 size=       0KiB time=00:00:00.88 bitrate=   4.4kbits/s speed=0.0235x elapsed=0:00:37.38    \nframe=   44 fps=1.2 q=33.0 size=       0KiB time=00:00:00.88 bitrate=   4.4kbits/s speed=0.0232x elapsed=0:00:37.90    \nframe=   44 fps=1.1 q=33.0 size=       0KiB time=00:00:00.88 bitrate=   4.4kbits/s speed=0.0229x elapsed=0:00:38.42    \nframe=   44 fps=1.1 q=33.0 size=       0KiB time=00:00:00.88 bitrate=   4.4kbits/s speed=0.0226x elapsed=0:00:38.93    \nframe=   45 fps=1.1 q=17.0 size=       0KiB time=00:00:00.90 bitrate=   4.3kbits/s speed=0.0228x elapsed=0:00:39.45    \nframe=   45 fps=1.1 q=17.0 size=       0KiB time=00:00:00.90 bitrate=   4.3kbits/s speed=0.0225x elapsed=0:00:39.96    \nframe=   46 fps=1.1 q=34.0 size=       0KiB time=00:00:00.92 bitrate=   4.2kbits/s speed=0.0227x elapsed=0:00:40.48    \nframe=   46 fps=1.1 q=34.0 size=       0KiB time=00:00:00.92 bitrate=   4.2kbits/s speed=0.0224x elapsed=0:00:41.00    \nframe=   47 fps=1.1 q=34.0 size=       0KiB time=00:00:00.94 bitrate=   4.1kbits/s speed=0.0226x elapsed=0:00:41.53    \nframe=   47 fps=1.1 q=34.0 size=       0KiB time=00:00:00.94 bitrate=   4.1kbits/s speed=0.0223x elapsed=0:00:42.05    \nframe=   48 fps=1.1 q=34.0 size=       0KiB time=00:00:00.96 bitrate=   4.0kbits/s speed=0.0225x elapsed=0:00:42.59    \nframe=   48 fps=1.1 q=34.0 size=       0KiB time=00:00:00.96 bitrate=   4.0kbits/s speed=0.0223x elapsed=0:00:43.10    \nframe=   49 fps=1.1 q=34.0 size=       0KiB time=00:00:00.98 bitrate=   3.9kbits/s speed=0.0225x elapsed=0:00:43.63    \nframe=   49 fps=1.1 q=34.0 size=       0KiB time=00:00:00.98 bitrate=   3.9kbits/s speed=0.0222x elapsed=0:00:44.16    \nframe=   50 fps=1.1 q=35.0 size=       0KiB time=00:00:01.00 bitrate=   3.9kbits/s speed=0.0224x elapsed=0:00:44.68    \nframe=   50 fps=1.1 q=35.0 size=       0KiB time=00:00:01.00 bitrate=   3.9kbits/s speed=0.0221x elapsed=0:00:45.21    \nframe=   51 fps=1.1 q=35.0 size=       0KiB time=00:00:01.02 bitrate=   3.8kbits/s speed=0.0223x elapsed=0:00:45.75    \nframe=   51 fps=1.1 q=35.0 size=       0KiB time=00:00:01.02 bitrate=   3.8kbits/s speed=0.022x elapsed=0:00:46.27    \nframe=   52 fps=1.1 q=35.0 size=       0KiB time=00:00:01.04 bitrate=   3.7kbits/s speed=0.0222x elapsed=0:00:46.80    \nframe=   52 fps=1.1 q=35.0 size=       0KiB time=00:00:01.04 bitrate=   3.7kbits/s speed=0.022x elapsed=0:00:47.33    \nframe=   53 fps=1.1 q=35.0 size=       0KiB time=00:00:01.06 bitrate=   3.6kbits/s speed=0.0222x elapsed=0:00:47.85    \nframe=   53 fps=1.1 q=35.0 size=       0KiB time=00:00:01.06 bitrate=   3.6kbits/s speed=0.0219x elapsed=0:00:48.38    \nframe=   54 fps=1.1 q=35.0 size=       0KiB time=00:00:01.08 bitrate=   3.6kbits/s speed=0.0221x elapsed=0:00:48.90    \nframe=   54 fps=1.1 q=35.0 size=       0KiB time=00:00:01.08 bitrate=   3.6kbits/s speed=0.0218x elapsed=0:00:49.43    \nframe=   55 fps=1.1 q=35.0 size=       0KiB time=00:00:01.10 bitrate=   3.5kbits/s speed=0.022x elapsed=0:00:49.95    \nframe=   55 fps=1.1 q=35.0 size=       0KiB time=00:00:01.10 bitrate=   3.5kbits/s speed=0.0218x elapsed=0:00:50.47    \nframe=   55 fps=1.1 q=35.0 size=       0KiB time=00:00:01.10 bitrate=   3.5kbits/s speed=0.0216x elapsed=0:00:51.01    \nframe=   55 fps=1.1 q=35.0 size=       0KiB time=00:00:01.10 bitrate=   3.5kbits/s speed=0.0213x elapsed=0:00:51.54    \nframe=   55 fps=1.1 q=35.0 size=       0KiB time=00:00:01.10 bitrate=   3.5kbits/s speed=0.0211x elapsed=0:00:52.07    \nframe=   56 fps=1.1 q=20.0 size=       0KiB time=00:00:01.12 bitrate=   3.4kbits/s speed=0.0213x elapsed=0:00:52.58    \nframe=   56 fps=1.1 q=20.0 size=       0KiB time=00:00:01.12 bitrate=   3.4kbits/s speed=0.0211x elapsed=0:00:53.10    \nframe=   57 fps=1.1 q=35.0 size=       0KiB time=00:00:01.14 bitrate=   3.4kbits/s speed=0.0213x elapsed=0:00:53.62    \nframe=   57 fps=1.1 q=35.0 size=       0KiB time=00:00:01.14 bitrate=   3.4kbits/s speed=0.0211x elapsed=0:00:54.14    \nframe=   58 fps=1.1 q=35.0 size=       0KiB time=00:00:01.16 bitrate=   3.3kbits/s speed=0.0212x elapsed=0:00:54.65    \nframe=   58 fps=1.1 q=35.0 size=       0KiB time=00:00:01.16 bitrate=   3.3kbits/s speed=0.021x elapsed=0:00:55.18    \nframe=   59 fps=1.1 q=35.0 size=       0KiB time=00:00:01.18 bitrate=   3.3kbits/s speed=0.0212x elapsed=0:00:55.72    \nframe=   59 fps=1.0 q=35.0 size=       0KiB time=00:00:01.18 bitrate=   3.3kbits/s speed=0.021x elapsed=0:00:56.24    \nframe=   60 fps=1.1 q=36.0 size=       0KiB time=00:00:01.20 bitrate=   3.2kbits/s speed=0.0211x elapsed=0:00:56.76    \nframe=   60 fps=1.0 q=36.0 size=       0KiB time=00:00:01.20 bitrate=   3.2kbits/s speed=0.0209x elapsed=0:00:57.29    \nframe=   60 fps=1.0 q=36.0 size=       0KiB time=00:00:01.20 bitrate=   3.2kbits/s speed=0.0208x elapsed=0:00:57.81    \nframe=   61 fps=1.0 q=36.0 size=       0KiB time=00:00:01.22 bitrate=   3.2kbits/s speed=0.0209x elapsed=0:00:58.33    \nframe=   62 fps=1.1 q=36.0 size=       0KiB time=00:00:01.24 bitrate=   3.1kbits/s speed=0.0211x elapsed=0:00:58.85    \nframe=   62 fps=1.0 q=36.0 size=       0KiB time=00:00:01.24 bitrate=   3.1kbits/s speed=0.0209x elapsed=0:00:59.36    \nframe=   63 fps=1.1 q=36.0 size=       0KiB time=00:00:01.26 bitrate=   3.1kbits/s speed=0.021x elapsed=0:00:59.88    \nframe=   64 fps=1.1 q=36.0 size=       0KiB time=00:00:01.28 bitrate=   3.0kbits/s speed=0.0212x elapsed=0:01:00.40    \nframe=   64 fps=1.1 q=36.0 size=       0KiB time=00:00:01.28 bitrate=   3.0kbits/s speed=0.021x elapsed=0:01:00.92    \nframe=   64 fps=1.0 q=36.0 size=       0KiB time=00:00:01.28 bitrate=   3.0kbits/s speed=0.0208x elapsed=0:01:01.43    \nframe=   65 fps=1.0 q=36.0 size=       0KiB time=00:00:01.30 bitrate=   3.0kbits/s speed=0.021x elapsed=0:01:01.96    \nframe=   65 fps=1.0 q=36.0 size=       0KiB time=00:00:01.30 bitrate=   3.0kbits/s speed=0.0208x elapsed=0:01:02.48    \nframe=   66 fps=1.0 q=36.0 size=       0KiB time=00:00:01.32 bitrate=   2.9kbits/s speed=0.0209x elapsed=0:01:03.01    \nframe=   66 fps=1.0 q=36.0 size=       0KiB time=00:00:01.32 bitrate=   2.9kbits/s speed=0.0208x elapsed=0:01:03.54    \nframe=   66 fps=1.0 q=36.0 size=       0KiB time=00:00:01.32 bitrate=   2.9kbits/s speed=0.0206x elapsed=0:01:04.06    \nframe=   66 fps=1.0 q=36.0 size=       0KiB time=00:00:01.32 bitrate=   2.9kbits/s speed=0.0204x elapsed=0:01:04.59    \nframe=   67 fps=1.0 q=25.0 size=       0KiB time=00:00:01.32 bitrate=   2.9kbits/s speed=0.0203x elapsed=0:01:05.10    \nframe=   67 fps=1.0 q=25.0 size=       0KiB time=00:00:01.34 bitrate=   2.9kbits/s speed=0.0204x elapsed=0:01:05.63    \nframe=   67 fps=1.0 q=25.0 size=       0KiB time=00:00:01.34 bitrate=   2.9kbits/s speed=0.0203x elapsed=0:01:06.15    \nframe=   68 fps=1.0 q=37.0 size=       0KiB time=00:00:01.36 bitrate=   2.8kbits/s speed=0.0204x elapsed=0:01:06.66    \nframe=   68 fps=1.0 q=37.0 size=       0KiB time=00:00:01.36 bitrate=   2.8kbits/s speed=0.0202x elapsed=0:01:07.17    \nframe=   69 fps=1.0 q=37.0 size=       0KiB time=00:00:01.38 bitrate=   2.8kbits/s speed=0.0204x elapsed=0:01:07.70    \nframe=   69 fps=1.0 q=37.0 size=       0KiB time=00:00:01.38 bitrate=   2.8kbits/s speed=0.0202x elapsed=0:01:08.23    \nframe=   70 fps=1.0 q=38.0 size=       0KiB time=00:00:01.40 bitrate=   2.8kbits/s speed=0.0204x elapsed=0:01:08.77    \nframe=   70 fps=1.0 q=38.0 size=       0KiB time=00:00:01.40 bitrate=   2.8kbits/s speed=0.0202x elapsed=0:01:09.30    \nframe=   71 fps=1.0 q=38.0 size=       0KiB time=00:00:01.42 bitrate=   2.7kbits/s speed=0.0203x elapsed=0:01:09.82    \nframe=   71 fps=1.0 q=38.0 size=       0KiB time=00:00:01.42 bitrate=   2.7kbits/s speed=0.0202x elapsed=0:01:10.34    \nframe=   72 fps=1.0 q=38.0 size=       0KiB time=00:00:01.44 bitrate=   2.7kbits/s speed=0.0203x elapsed=0:01:10.85    \nframe=   72 fps=1.0 q=38.0 size=       0KiB time=00:00:01.44 bitrate=   2.7kbits/s speed=0.0202x elapsed=0:01:11.36    \nframe=   72 fps=1.0 q=38.0 size=       0KiB time=00:00:01.44 bitrate=   2.7kbits/s speed=0.02x elapsed=0:01:11.89    \nframe=   72 fps=1.0 q=38.0 size=       0KiB time=00:00:01.44 bitrate=   2.7kbits/s speed=0.0199x elapsed=0:01:12.43    \nframe=   73 fps=1.0 q=21.0 size=       0KiB time=00:00:01.46 bitrate=   2.6kbits/s speed=0.02x elapsed=0:01:12.95    \nframe=   73 fps=1.0 q=21.0 size=       0KiB time=00:00:01.46 bitrate=   2.6kbits/s speed=0.0199x elapsed=0:01:13.49    \nframe=   74 fps=1.0 q=37.0 size=       0KiB time=00:00:01.48 bitrate=   2.6kbits/s speed=0.02x elapsed=0:01:14.03    \nframe=   75 fps=1.0 q=36.0 size=       0KiB time=00:00:01.50 bitrate=   2.6kbits/s speed=0.0201x elapsed=0:01:14.63    \nframe=   76 fps=1.0 q=36.0 size=       0KiB time=00:00:01.52 bitrate=   2.5kbits/s speed=0.0202x elapsed=0:01:15.19    \nframe=   77 fps=1.0 q=36.0 size=       0KiB time=00:00:01.54 bitrate=   2.5kbits/s speed=0.0203x elapsed=0:01:15.77    \nframe=   78 fps=1.0 q=36.0 size=       0KiB time=00:00:01.54 bitrate=   2.5kbits/s speed=0.0202x elapsed=0:01:16.41    \nframe=   78 fps=1.0 q=36.0 size=       0KiB time=00:00:01.56 bitrate=   2.5kbits/s speed=0.0203x elapsed=0:01:17.03    \nframe=   79 fps=1.0 q=36.0 size=       0KiB time=00:00:01.58 bitrate=   2.4kbits/s speed=0.0204x elapsed=0:01:17.57    \nframe=   80 fps=1.0 q=36.0 size=       0KiB time=00:00:01.60 bitrate=   2.4kbits/s speed=0.0205x elapsed=0:01:18.22    \nframe=   80 fps=1.0 q=36.0 size=       0KiB time=00:00:01.60 bitrate=   2.4kbits/s speed=0.0203x elapsed=0:01:18.76    \nframe=   81 fps=1.0 q=36.0 size=       0KiB time=00:00:01.62 bitrate=   2.4kbits/s speed=0.0204x elapsed=0:01:19.30    \nframe=   82 fps=1.0 q=36.0 size=       0KiB time=00:00:01.64 bitrate=   2.4kbits/s speed=0.0205x elapsed=0:01:19.83    \nframe=   83 fps=1.0 q=36.0 size=       0KiB time=00:00:01.66 bitrate=   2.3kbits/s speed=0.0207x elapsed=0:01:20.36    \nframe=   83 fps=1.0 q=36.0 size=       0KiB time=00:00:01.66 bitrate=   2.3kbits/s speed=0.0205x elapsed=0:01:20.90    \nframe=   84 fps=1.0 q=25.0 size=       0KiB time=00:00:01.68 bitrate=   2.3kbits/s speed=0.0206x elapsed=0:01:21.48    \nframe=   85 fps=1.0 q=37.0 size=       0KiB time=00:00:01.70 bitrate=   2.3kbits/s speed=0.0207x elapsed=0:01:22.01    \nframe=   86 fps=1.0 q=36.0 size=       0KiB time=00:00:01.72 bitrate=   2.2kbits/s speed=0.0208x elapsed=0:01:22.53    \nframe=   88 fps=1.1 q=35.0 size=       0KiB time=00:00:01.74 bitrate=   2.2kbits/s speed=0.0209x elapsed=0:01:23.11    \nframe=   89 fps=1.1 q=35.0 size=       0KiB time=00:00:01.78 bitrate=   2.2kbits/s speed=0.0212x elapsed=0:01:23.85    \nframe=   89 fps=1.1 q=35.0 size=       0KiB time=00:00:01.78 bitrate=   2.2kbits/s speed=0.0211x elapsed=0:01:24.36    \nframe=   89 fps=1.0 q=35.0 size=       0KiB time=00:00:01.78 bitrate=   2.2kbits/s speed=0.021x elapsed=0:01:24.88    \nframe=   90 fps=1.1 q=24.0 size=       0KiB time=00:00:01.80 bitrate=   2.1kbits/s speed=0.0211x elapsed=0:01:25.40    \nframe=   91 fps=1.1 q=35.0 size=       0KiB time=00:00:01.82 bitrate=   2.1kbits/s speed=0.0212x elapsed=0:01:25.91    \nframe=   92 fps=1.1 q=35.0 size=       0KiB time=00:00:01.84 bitrate=   2.1kbits/s speed=0.0213x elapsed=0:01:26.43    \nframe=   93 fps=1.1 q=35.0 size=       0KiB time=00:00:01.86 bitrate=   2.1kbits/s speed=0.0214x elapsed=0:01:26.94    \nframe=   94 fps=1.1 q=35.0 size=       0KiB time=00:00:01.88 bitrate=   2.1kbits/s speed=0.0215x elapsed=0:01:27.47    \nframe=   95 fps=1.1 q=35.0 size=       0KiB time=00:00:01.90 bitrate=   2.0kbits/s speed=0.0216x elapsed=0:01:27.97    \nframe=   95 fps=1.1 q=35.0 size=       0KiB time=00:00:01.90 bitrate=   2.0kbits/s speed=0.0215x elapsed=0:01:28.49    \nframe=   95 fps=1.1 q=35.0 size=       0KiB time=00:00:01.90 bitrate=   2.0kbits/s speed=0.0213x elapsed=0:01:29.00    \nframe=   95 fps=1.1 q=35.0 size=       0KiB time=00:00:01.90 bitrate=   2.0kbits/s speed=0.0212x elapsed=0:01:29.53    \nframe=   95 fps=1.1 q=35.0 size=       0KiB time=00:00:01.90 bitrate=   2.0kbits/s speed=0.0211x elapsed=0:01:30.04    \nframe=   95 fps=1.0 q=35.0 size=       0KiB time=00:00:01.90 bitrate=   2.0kbits/s speed=0.021x elapsed=0:01:30.56    \nframe=   96 fps=1.1 q=12.0 size=       0KiB time=00:00:01.92 bitrate=   2.0kbits/s speed=0.0211x elapsed=0:01:31.07    \nframe=   97 fps=1.1 q=40.0 size=       0KiB time=00:00:01.94 bitrate=   2.0kbits/s speed=0.0212x elapsed=0:01:31.58    \nframe=   98 fps=1.1 q=39.0 size=       0KiB time=00:00:01.96 bitrate=   2.0kbits/s speed=0.0213x elapsed=0:01:32.10    \nframe=   99 fps=1.1 q=39.0 size=       0KiB time=00:00:01.98 bitrate=   1.9kbits/s speed=0.0214x elapsed=0:01:32.62    \nframe=  100 fps=1.1 q=39.0 size=       0KiB time=00:00:02.00 bitrate=   1.9kbits/s speed=0.0215x elapsed=0:01:33.13    \nframe=  101 fps=1.1 q=39.0 size=       0KiB time=00:00:02.02 bitrate=   1.9kbits/s speed=0.0216x elapsed=0:01:33.65    \nframe=  102 fps=1.1 q=39.0 size=       0KiB time=00:00:02.04 bitrate=   1.9kbits/s speed=0.0217x elapsed=0:01:34.17    \nframe=  103 fps=1.1 q=39.0 size=       0KiB time=00:00:02.06 bitrate=   1.9kbits/s speed=0.0218x elapsed=0:01:34.68    \nframe=  103 fps=1.1 q=39.0 size=       0KiB time=00:00:02.06 bitrate=   1.9kbits/s speed=0.0216x elapsed=0:01:35.19    \nframe=  104 fps=1.1 q=39.0 size=       0KiB time=00:00:02.08 bitrate=   1.9kbits/s speed=0.0217x elapsed=0:01:35.71    \nframe=  105 fps=1.1 q=39.0 size=       0KiB time=00:00:02.10 bitrate=   1.8kbits/s speed=0.0218x elapsed=0:01:36.22    \nframe=  106 fps=1.1 q=39.0 size=       0KiB time=00:00:02.12 bitrate=   1.8kbits/s speed=0.0219x elapsed=0:01:36.75    \nframe=  106 fps=1.1 q=39.0 size=       0KiB time=00:00:02.12 bitrate=   1.8kbits/s speed=0.0218x elapsed=0:01:37.25    \nframe=  106 fps=1.1 q=39.0 size=       0KiB time=00:00:02.12 bitrate=   1.8kbits/s speed=0.0217x elapsed=0:01:37.77    \nframe=  107 fps=1.1 q=24.0 size=       0KiB time=00:00:02.14 bitrate=   1.8kbits/s speed=0.0218x elapsed=0:01:38.29    \nframe=  107 fps=1.1 q=24.0 size=       0KiB time=00:00:02.14 bitrate=   1.8kbits/s speed=0.0217x elapsed=0:01:38.81    \nframe=  108 fps=1.1 q=34.0 size=       0KiB time=00:00:02.16 bitrate=   1.8kbits/s speed=0.0217x elapsed=0:01:39.32    \nframe=  109 fps=1.1 q=34.0 size=       0KiB time=00:00:02.18 bitrate=   1.8kbits/s speed=0.0218x elapsed=0:01:39.84    \nframe=  109 fps=1.1 q=34.0 size=       0KiB time=00:00:02.18 bitrate=   1.8kbits/s speed=0.0217x elapsed=0:01:40.35    \nframe=  110 fps=1.1 q=34.0 size=       0KiB time=00:00:02.20 bitrate=   1.8kbits/s speed=0.0218x elapsed=0:01:40.87    \nframe=  111 fps=1.1 q=34.0 size=       0KiB time=00:00:02.22 bitrate=   1.7kbits/s speed=0.0219x elapsed=0:01:41.39    \nframe=  111 fps=1.1 q=34.0 size=       0KiB time=00:00:02.22 bitrate=   1.7kbits/s speed=0.0218x elapsed=0:01:41.90    \nframe=  112 fps=1.1 q=34.0 size=       0KiB time=00:00:02.24 bitrate=   1.7kbits/s speed=0.0219x elapsed=0:01:42.42    \nframe=  112 fps=1.1 q=34.0 size=       0KiB time=00:00:02.24 bitrate=   1.7kbits/s speed=0.0218x elapsed=0:01:42.93    \nframe=  113 fps=1.1 q=34.0 size=       0KiB time=00:00:02.26 bitrate=   1.7kbits/s speed=0.0218x elapsed=0:01:43.44    \nframe=  113 fps=1.1 q=34.0 size=       0KiB time=00:00:02.26 bitrate=   1.7kbits/s speed=0.0217x elapsed=0:01:43.95    \nframe=  114 fps=1.1 q=34.0 size=       0KiB time=00:00:02.28 bitrate=   1.7kbits/s speed=0.0218x elapsed=0:01:44.48    \nframe=  115 fps=1.1 q=34.0 size=       0KiB time=00:00:02.30 bitrate=   1.7kbits/s speed=0.0219x elapsed=0:01:44.99    \nframe=  115 fps=1.1 q=34.0 size=       0KiB time=00:00:02.30 bitrate=   1.7kbits/s speed=0.0218x elapsed=0:01:45.51    \nframe=  116 fps=1.1 q=34.0 size=       0KiB time=00:00:02.32 bitrate=   1.7kbits/s speed=0.0219x elapsed=0:01:46.03    \nframe=  117 fps=1.1 q=34.0 size=       0KiB time=00:00:02.34 bitrate=   1.6kbits/s speed=0.022x elapsed=0:01:46.54    \nframe=  117 fps=1.1 q=34.0 size=       0KiB time=00:00:02.34 bitrate=   1.6kbits/s speed=0.0219x elapsed=0:01:47.05    \nframe=  117 fps=1.1 q=34.0 size=       0KiB time=00:00:02.34 bitrate=   1.6kbits/s speed=0.0218x elapsed=0:01:47.57    \nframe=  117 fps=1.1 q=34.0 size=       0KiB time=00:00:02.34 bitrate=   1.6kbits/s speed=0.0216x elapsed=0:01:48.09    \nframe=  118 fps=1.1 q=11.0 size=       0KiB time=00:00:02.36 bitrate=   1.6kbits/s speed=0.0217x elapsed=0:01:48.61    \nframe=  119 fps=1.1 q=39.0 size=       0KiB time=00:00:02.38 bitrate=   1.6kbits/s speed=0.0218x elapsed=0:01:49.11    \nframe=  120 fps=1.1 q=38.0 size=       0KiB time=00:00:02.40 bitrate=   1.6kbits/s speed=0.0219x elapsed=0:01:49.63    \nframe=  121 fps=1.1 q=38.0 size=       0KiB time=00:00:02.42 bitrate=   1.6kbits/s speed=0.022x elapsed=0:01:50.14    \nframe=  123 fps=1.1 q=38.0 size=       0KiB time=00:00:02.46 bitrate=   1.6kbits/s speed=0.0222x elapsed=0:01:50.66    \nframe=  124 fps=1.1 q=39.0 size=       0KiB time=00:00:02.48 bitrate=   1.6kbits/s speed=0.0223x elapsed=0:01:51.18    \nframe=  125 fps=1.1 q=39.0 size=       0KiB time=00:00:02.50 bitrate=   1.5kbits/s speed=0.0224x elapsed=0:01:51.70    \nframe=  126 fps=1.1 q=39.0 size=       0KiB time=00:00:02.52 bitrate=   1.5kbits/s speed=0.0225x elapsed=0:01:52.21    \nframe=  127 fps=1.1 q=39.0 size=       0KiB time=00:00:02.54 bitrate=   1.5kbits/s speed=0.0225x elapsed=0:01:52.72    \nframe=  128 fps=1.1 q=39.0 size=       0KiB time=00:00:02.56 bitrate=   1.5kbits/s speed=0.0226x elapsed=0:01:53.25    \nframe=  128 fps=1.1 q=39.0 size=       0KiB time=00:00:02.56 bitrate=   1.5kbits/s speed=0.0225x elapsed=0:01:53.76    \nframe=  130 fps=1.1 q=33.0 size=    3584KiB time=00:00:02.60 bitrate=11292.4kbits/s speed=0.0228x elapsed=0:01:54.27    \nframe=  131 fps=1.1 q=33.0 size=    3584KiB time=00:00:02.62 bitrate=11206.2kbits/s speed=0.0228x elapsed=0:01:54.79    \nframe=  133 fps=1.2 q=34.0 size=    3584KiB time=00:00:02.66 bitrate=11037.6kbits/s speed=0.0231x elapsed=0:01:55.31    \nframe=  134 fps=1.2 q=34.0 size=    3584KiB time=00:00:02.68 bitrate=10955.3kbits/s speed=0.0231x elapsed=0:01:55.81    \nframe=  135 fps=1.2 q=33.0 size=    3584KiB time=00:00:02.70 bitrate=10874.1kbits/s speed=0.0232x elapsed=0:01:56.34    \nframe=  137 fps=1.2 q=33.0 size=    3584KiB time=00:00:02.74 bitrate=10715.4kbits/s speed=0.0234x elapsed=0:01:56.86    \nframe=  138 fps=1.2 q=33.0 size=    3584KiB time=00:00:02.76 bitrate=10637.7kbits/s speed=0.0235x elapsed=0:01:57.36    \nframe=  139 fps=1.2 q=33.0 size=    3584KiB time=00:00:02.78 bitrate=10561.2kbits/s speed=0.0236x elapsed=0:01:57.88    \nframe=  139 fps=1.2 q=33.0 size=    3584KiB time=00:00:02.78 bitrate=10561.2kbits/s speed=0.0235x elapsed=0:01:58.39    \nframe=  139 fps=1.2 q=33.0 size=    3584KiB time=00:00:02.78 bitrate=10561.2kbits/s speed=0.0234x elapsed=0:01:58.91    \nframe=  139 fps=1.2 q=33.0 size=    3584KiB time=00:00:02.78 bitrate=10561.2kbits/s speed=0.0233x elapsed=0:01:59.44    \nframe=  140 fps=1.2 q=19.0 size=    3584KiB time=00:00:02.80 bitrate=10485.8kbits/s speed=0.0233x elapsed=0:01:59.95    \nframe=  141 fps=1.2 q=34.0 size=    3584KiB time=00:00:02.82 bitrate=10411.4kbits/s speed=0.0234x elapsed=0:02:00.46    \nframe=  141 fps=1.2 q=34.0 size=    3584KiB time=00:00:02.82 bitrate=10411.4kbits/s speed=0.0233x elapsed=0:02:00.97    \nframe=  142 fps=1.2 q=33.0 size=    3584KiB time=00:00:02.84 bitrate=10338.1kbits/s speed=0.0234x elapsed=0:02:01.49    \nframe=  143 fps=1.2 q=33.0 size=    3584KiB time=00:00:02.86 bitrate=10265.8kbits/s speed=0.0234x elapsed=0:02:02.00    \nframe=  143 fps=1.2 q=33.0 size=    3584KiB time=00:00:02.86 bitrate=10265.8kbits/s speed=0.0233x elapsed=0:02:02.53    \nframe=  144 fps=1.2 q=33.0 size=    3584KiB time=00:00:02.88 bitrate=10194.5kbits/s speed=0.0234x elapsed=0:02:03.06    \nframe=  145 fps=1.2 q=34.0 size=    3584KiB time=00:00:02.90 bitrate=10124.2kbits/s speed=0.0235x elapsed=0:02:03.59    \nframe=  146 fps=1.2 q=35.0 size=    3584KiB time=00:00:02.92 bitrate=10054.8kbits/s speed=0.0235x elapsed=0:02:04.11    \nframe=  146 fps=1.2 q=35.0 size=    3584KiB time=00:00:02.92 bitrate=10054.8kbits/s speed=0.0234x elapsed=0:02:04.64    \nframe=  147 fps=1.2 q=35.0 size=    3584KiB time=00:00:02.94 bitrate=9986.4kbits/s speed=0.0235x elapsed=0:02:05.16    \nframe=  148 fps=1.2 q=35.0 size=    3584KiB time=00:00:02.96 bitrate=9919.0kbits/s speed=0.0236x elapsed=0:02:05.68    \nframe=  148 fps=1.2 q=35.0 size=    3584KiB time=00:00:02.96 bitrate=9919.0kbits/s speed=0.0235x elapsed=0:02:06.20    \nframe=  149 fps=1.2 q=36.0 size=    3584KiB time=00:00:02.98 bitrate=9852.4kbits/s speed=0.0235x elapsed=0:02:06.72    \nframe=  149 fps=1.2 q=36.0 size=    3584KiB time=00:00:02.98 bitrate=9852.4kbits/s speed=0.0234x elapsed=0:02:07.25    \nframe=  150 fps=1.2 q=36.0 size=    3584KiB time=00:00:03.00 bitrate=9786.7kbits/s speed=0.0235x elapsed=0:02:07.75    \nframe=  150 fps=1.2 q=36.0 size=    3584KiB time=00:00:03.00 bitrate=9786.7kbits/s speed=0.0234x elapsed=0:02:08.27    \nframe=  150 fps=1.2 q=36.0 size=    3584KiB time=00:00:03.00 bitrate=9786.7kbits/s speed=0.0233x elapsed=0:02:08.79    \nframe=  151 fps=1.2 q=25.0 size=    3584KiB time=00:00:03.02 bitrate=9721.9kbits/s speed=0.0234x elapsed=0:02:09.31    \nframe=  152 fps=1.2 q=38.0 size=    3584KiB time=00:00:03.04 bitrate=9657.9kbits/s speed=0.0234x elapsed=0:02:09.82    \nframe=  152 fps=1.2 q=38.0 size=    3584KiB time=00:00:03.04 bitrate=9657.9kbits/s speed=0.0233x elapsed=0:02:10.33    \nframe=  153 fps=1.2 q=37.0 size=    3584KiB time=00:00:03.06 bitrate=9594.8kbits/s speed=0.0234x elapsed=0:02:10.85    \nframe=  153 fps=1.2 q=37.0 size=    3584KiB time=00:00:03.06 bitrate=9594.8kbits/s speed=0.0233x elapsed=0:02:11.38    \nframe=  154 fps=1.2 q=38.0 size=    3584KiB time=00:00:03.08 bitrate=9532.5kbits/s speed=0.0233x elapsed=0:02:11.91    \nframe=  155 fps=1.2 q=38.0 size=    3584KiB time=00:00:03.10 bitrate=9471.0kbits/s speed=0.0234x elapsed=0:02:12.43    \nframe=  155 fps=1.2 q=38.0 size=    3584KiB time=00:00:03.10 bitrate=9471.0kbits/s speed=0.0233x elapsed=0:02:12.96    \nframe=  156 fps=1.2 q=38.0 size=    3584KiB time=00:00:03.12 bitrate=9410.3kbits/s speed=0.0234x elapsed=0:02:13.48    \nframe=  156 fps=1.2 q=38.0 size=    3584KiB time=00:00:03.12 bitrate=9410.3kbits/s speed=0.0233x elapsed=0:02:13.99    \nframe=  156 fps=1.2 q=38.0 size=    3584KiB time=00:00:03.12 bitrate=9410.3kbits/s speed=0.0232x elapsed=0:02:14.52    \nframe=  156 fps=1.2 q=38.0 size=    3584KiB time=00:00:03.12 bitrate=9410.3kbits/s speed=0.0231x elapsed=0:02:15.04    \nframe=  157 fps=1.2 q=21.0 size=    3584KiB time=00:00:03.14 bitrate=9350.4kbits/s speed=0.0232x elapsed=0:02:15.56    \nframe=  158 fps=1.2 q=37.0 size=    3584KiB time=00:00:03.16 bitrate=9291.2kbits/s speed=0.0232x elapsed=0:02:16.09    \nframe=  158 fps=1.2 q=37.0 size=    3584KiB time=00:00:03.16 bitrate=9291.2kbits/s speed=0.0231x elapsed=0:02:16.62    \nframe=  159 fps=1.2 q=35.0 size=    3584KiB time=00:00:03.18 bitrate=9232.7kbits/s speed=0.0232x elapsed=0:02:17.13    \nframe=  160 fps=1.2 q=35.0 size=    3584KiB time=00:00:03.20 bitrate=9175.0kbits/s speed=0.0232x elapsed=0:02:17.64    \nframe=  160 fps=1.2 q=35.0 size=    3584KiB time=00:00:03.20 bitrate=9175.0kbits/s speed=0.0232x elapsed=0:02:18.16    \nframe=  161 fps=1.2 q=35.0 size=    3584KiB time=00:00:03.22 bitrate=9118.1kbits/s speed=0.0232x elapsed=0:02:18.68    \nframe=  162 fps=1.2 q=35.0 size=    3584KiB time=00:00:03.24 bitrate=9061.8kbits/s speed=0.0233x elapsed=0:02:19.21    \nframe=  163 fps=1.2 q=35.0 size=    3584KiB time=00:00:03.26 bitrate=9006.2kbits/s speed=0.0233x elapsed=0:02:19.73    \nframe=  163 fps=1.2 q=35.0 size=    3584KiB time=00:00:03.26 bitrate=9006.2kbits/s speed=0.0232x elapsed=0:02:20.25    \nframe=  164 fps=1.2 q=35.0 size=    3584KiB time=00:00:03.28 bitrate=8951.3kbits/s speed=0.0233x elapsed=0:02:20.77    \nframe=  164 fps=1.2 q=35.0 size=    3584KiB time=00:00:03.28 bitrate=8951.3kbits/s speed=0.0232x elapsed=0:02:21.28    \nframe=  165 fps=1.2 q=35.0 size=    3584KiB time=00:00:03.30 bitrate=8897.0kbits/s speed=0.0233x elapsed=0:02:21.80    \nframe=  166 fps=1.2 q=35.0 size=    3584KiB time=00:00:03.32 bitrate=8843.4kbits/s speed=0.0233x elapsed=0:02:22.32    \nframe=  166 fps=1.2 q=35.0 size=    3584KiB time=00:00:03.32 bitrate=8843.4kbits/s speed=0.0232x elapsed=0:02:22.86    \nframe=  167 fps=1.2 q=35.0 size=    3584KiB time=00:00:03.34 bitrate=8790.5kbits/s speed=0.0233x elapsed=0:02:23.39    \nframe=  167 fps=1.2 q=35.0 size=    3584KiB time=00:00:03.34 bitrate=8790.5kbits/s speed=0.0232x elapsed=0:02:23.92    \nframe=  167 fps=1.2 q=35.0 size=    3584KiB time=00:00:03.34 bitrate=8790.5kbits/s speed=0.0231x elapsed=0:02:24.45    \nframe=  167 fps=1.2 q=35.0 size=    3584KiB time=00:00:03.34 bitrate=8790.5kbits/s speed=0.023x elapsed=0:02:24.98    \nframe=  167 fps=1.1 q=35.0 size=    3584KiB time=00:00:03.34 bitrate=8790.5kbits/s speed=0.023x elapsed=0:02:25.51    \nframe=  168 fps=1.2 q=18.0 size=    3584KiB time=00:00:03.36 bitrate=8738.1kbits/s speed=0.023x elapsed=0:02:26.02    \nframe=  168 fps=1.1 q=18.0 size=    3584KiB time=00:00:03.36 bitrate=8738.1kbits/s speed=0.0229x elapsed=0:02:26.53    \nframe=  169 fps=1.1 q=37.0 size=    3584KiB time=00:00:03.38 bitrate=8686.4kbits/s speed=0.023x elapsed=0:02:27.05    \nframe=  170 fps=1.2 q=36.0 size=    3584KiB time=00:00:03.40 bitrate=8635.3kbits/s speed=0.023x elapsed=0:02:27.58    \nframe=  172 fps=1.2 q=36.0 size=    3584KiB time=00:00:03.44 bitrate=8534.9kbits/s speed=0.0232x elapsed=0:02:28.11    \nframe=  173 fps=1.2 q=36.0 size=    3584KiB time=00:00:03.46 bitrate=8485.6kbits/s speed=0.0233x elapsed=0:02:28.66    \nframe=  174 fps=1.2 q=36.0 size=    3584KiB time=00:00:03.48 bitrate=8436.8kbits/s speed=0.0233x elapsed=0:02:29.23    \nframe=  175 fps=1.2 q=36.0 size=    3584KiB time=00:00:03.50 bitrate=8388.6kbits/s speed=0.0234x elapsed=0:02:29.75    \nframe=  176 fps=1.2 q=36.0 size=    3584KiB time=00:00:03.52 bitrate=8340.9kbits/s speed=0.0234x elapsed=0:02:30.32    \nframe=  177 fps=1.2 q=36.0 size=    3584KiB time=00:00:03.54 bitrate=8293.8kbits/s speed=0.0235x elapsed=0:02:30.95    \nframe=  178 fps=1.2 q=36.0 size=    3584KiB time=00:00:03.56 bitrate=8247.2kbits/s speed=0.0235x elapsed=0:02:31.63    \nframe=  178 fps=1.2 q=36.0 size=    3584KiB time=00:00:03.56 bitrate=8247.2kbits/s speed=0.0234x elapsed=0:02:32.18    \nframe=  178 fps=1.2 q=36.0 size=    3584KiB time=00:00:03.56 bitrate=8247.2kbits/s speed=0.0233x elapsed=0:02:32.70    \nframe=  180 fps=1.2 q=36.0 size=    3584KiB time=00:00:03.60 bitrate=8155.6kbits/s speed=0.0235x elapsed=0:02:33.24    \nframe=  181 fps=1.2 q=35.0 size=    3584KiB time=00:00:03.62 bitrate=8110.5kbits/s speed=0.0235x elapsed=0:02:33.76    \nframe=  182 fps=1.2 q=34.0 size=    3584KiB time=00:00:03.64 bitrate=8066.0kbits/s speed=0.0236x elapsed=0:02:34.27    \nframe=  184 fps=1.2 q=35.0 size=    3584KiB time=00:00:03.68 bitrate=7978.3kbits/s speed=0.0238x elapsed=0:02:34.78    \nframe=  185 fps=1.2 q=35.0 size=    3584KiB time=00:00:03.70 bitrate=7935.2kbits/s speed=0.0238x elapsed=0:02:35.33    \nframe=  187 fps=1.2 q=35.0 size=    3584KiB time=00:00:03.74 bitrate=7850.3kbits/s speed=0.024x elapsed=0:02:35.88    \nframe=  188 fps=1.2 q=35.0 size=    3584KiB time=00:00:03.76 bitrate=7808.5kbits/s speed=0.024x elapsed=0:02:36.41    \nframe=  189 fps=1.2 q=35.0 size=    3584KiB time=00:00:03.78 bitrate=7767.2kbits/s speed=0.0241x elapsed=0:02:36.95    \nframe=  189 fps=1.2 q=35.0 size=    3584KiB time=00:00:03.78 bitrate=7767.2kbits/s speed=0.024x elapsed=0:02:37.54    \nframe=  189 fps=1.2 q=35.0 size=    3584KiB time=00:00:03.78 bitrate=7767.2kbits/s speed=0.0239x elapsed=0:02:38.20    \nframe=  191 fps=1.2 q=36.0 size=    3584KiB time=00:00:03.82 bitrate=7685.9kbits/s speed=0.0241x elapsed=0:02:38.75    \nframe=  192 fps=1.2 q=35.0 size=    3584KiB time=00:00:03.84 bitrate=7645.9kbits/s speed=0.0241x elapsed=0:02:39.27    \nframe=  194 fps=1.2 q=35.0 size=    3584KiB time=00:00:03.88 bitrate=7567.0kbits/s speed=0.0243x elapsed=0:02:39.81    \nframe=  195 fps=1.2 q=35.0 size=    3584KiB time=00:00:03.90 bitrate=7528.2kbits/s speed=0.0243x elapsed=0:02:40.35    \nframe=  197 fps=1.2 q=35.0 size=    3584KiB time=00:00:03.94 bitrate=7451.8kbits/s speed=0.0245x elapsed=0:02:40.86    \nframe=  198 fps=1.2 q=35.0 size=    3584KiB time=00:00:03.96 bitrate=7414.2kbits/s speed=0.0245x elapsed=0:02:41.38    \nframe=  199 fps=1.2 q=35.0 size=    3584KiB time=00:00:03.98 bitrate=7376.9kbits/s speed=0.0246x elapsed=0:02:41.90    \nframe=  200 fps=1.2 q=35.0 size=    3584KiB time=00:00:04.00 bitrate=7340.0kbits/s speed=0.0246x elapsed=0:02:42.43    \nframe=  200 fps=1.2 q=35.0 size=    3584KiB time=00:00:04.00 bitrate=7340.0kbits/s speed=0.0245x elapsed=0:02:42.95    \nframe=  200 fps=1.2 q=35.0 size=    3584KiB time=00:00:04.00 bitrate=7340.0kbits/s speed=0.0245x elapsed=0:02:43.47    \nframe=  200 fps=1.2 q=35.0 size=    3584KiB time=00:00:04.00 bitrate=7340.0kbits/s speed=0.0244x elapsed=0:02:44.00    \nframe=  201 fps=1.2 q=18.0 size=    3584KiB time=00:00:04.02 bitrate=7303.5kbits/s speed=0.0244x elapsed=0:02:44.51    \nframe=  202 fps=1.2 q=35.0 size=    3584KiB time=00:00:04.04 bitrate=7267.4kbits/s speed=0.0245x elapsed=0:02:45.05    \nframe=  203 fps=1.2 q=34.0 size=    3584KiB time=00:00:04.06 bitrate=7231.6kbits/s speed=0.0245x elapsed=0:02:45.58    \nframe=  204 fps=1.2 q=34.0 size=    3584KiB time=00:00:04.08 bitrate=7196.1kbits/s speed=0.0246x elapsed=0:02:46.10    \nframe=  205 fps=1.2 q=35.0 size=    3584KiB time=00:00:04.10 bitrate=7161.0kbits/s speed=0.0246x elapsed=0:02:46.64    \nframe=  207 fps=1.2 q=35.0 size=    3584KiB time=00:00:04.14 bitrate=7091.8kbits/s speed=0.0248x elapsed=0:02:47.17    \nframe=  208 fps=1.2 q=35.0 size=    3584KiB time=00:00:04.16 bitrate=7057.7kbits/s speed=0.0248x elapsed=0:02:47.69    \nframe=  209 fps=1.2 q=36.0 size=    3584KiB time=00:00:04.18 bitrate=7024.0kbits/s speed=0.0248x elapsed=0:02:48.23    \nframe=  211 fps=1.3 q=36.0 size=    3584KiB time=00:00:04.22 bitrate=6957.4kbits/s speed=0.025x elapsed=0:02:48.75    \nframe=  211 fps=1.2 q=36.0 size=    3584KiB time=00:00:04.22 bitrate=6957.4kbits/s speed=0.0249x elapsed=0:02:49.30    \nframe=  213 fps=1.3 q=33.0 size=    3584KiB time=00:00:04.26 bitrate=6892.0kbits/s speed=0.0251x elapsed=0:02:49.82    \nframe=  214 fps=1.3 q=33.0 size=    3584KiB time=00:00:04.28 bitrate=6859.8kbits/s speed=0.0251x elapsed=0:02:50.34    \nframe=  214 fps=1.3 q=33.0 size=    3584KiB time=00:00:04.28 bitrate=6859.8kbits/s speed=0.025x elapsed=0:02:50.91    \nframe=  215 fps=1.3 q=33.0 size=    3584KiB time=00:00:04.30 bitrate=6827.9kbits/s speed=0.0251x elapsed=0:02:51.50    \nframe=  216 fps=1.3 q=33.0 size=    3584KiB time=00:00:04.32 bitrate=6796.3kbits/s speed=0.0251x elapsed=0:02:52.07    \nframe=  217 fps=1.3 q=33.0 size=    3584KiB time=00:00:04.34 bitrate=6765.0kbits/s speed=0.0251x elapsed=0:02:52.68    \nframe=  219 fps=1.3 q=33.0 size=    3584KiB time=00:00:04.38 bitrate=6703.2kbits/s speed=0.0253x elapsed=0:02:53.21    \nframe=  220 fps=1.3 q=33.0 size=    3584KiB time=00:00:04.40 bitrate=6672.8kbits/s speed=0.0253x elapsed=0:02:53.72    \nframe=  221 fps=1.3 q=33.0 size=    3584KiB time=00:00:04.42 bitrate=6642.6kbits/s speed=0.0254x elapsed=0:02:54.30    \nframe=  222 fps=1.3 q=33.0 size=    3584KiB time=00:00:04.44 bitrate=6612.6kbits/s speed=0.0254x elapsed=0:02:54.91    \nframe=  223 fps=1.3 q=24.0 size=    3584KiB time=00:00:04.46 bitrate=6583.0kbits/s speed=0.0254x elapsed=0:02:55.48    \nframe=  225 fps=1.3 q=34.0 size=    3584KiB time=00:00:04.48 bitrate=6553.6kbits/s speed=0.0255x elapsed=0:02:55.99    \nframe=  226 fps=1.3 q=34.0 size=    3584KiB time=00:00:04.52 bitrate=6495.6kbits/s speed=0.0256x elapsed=0:02:56.55    \nframe=  227 fps=1.3 q=33.0 size=    3584KiB time=00:00:04.54 bitrate=6467.0kbits/s speed=0.0256x elapsed=0:02:57.12    \nframe=  228 fps=1.3 q=33.0 size=    3584KiB time=00:00:04.56 bitrate=6438.6kbits/s speed=0.0257x elapsed=0:02:57.70    \nframe=  228 fps=1.3 q=33.0 size=    3584KiB time=00:00:04.56 bitrate=6438.6kbits/s speed=0.0256x elapsed=0:02:58.29    \nframe=  228 fps=1.3 q=33.0 size=    3584KiB time=00:00:04.56 bitrate=6438.6kbits/s speed=0.0255x elapsed=0:02:58.80    \nframe=  228 fps=1.3 q=33.0 size=    3584KiB time=00:00:04.56 bitrate=6438.6kbits/s speed=0.0254x elapsed=0:02:59.33    \nframe=  228 fps=1.3 q=33.0 size=    3584KiB time=00:00:04.56 bitrate=6438.6kbits/s speed=0.0254x elapsed=0:02:59.86    \nframe=  229 fps=1.3 q=11.0 size=    3584KiB time=00:00:04.58 bitrate=6410.5kbits/s speed=0.0254x elapsed=0:03:00.39    \nframe=  230 fps=1.3 q=37.0 size=    3584KiB time=00:00:04.60 bitrate=6382.6kbits/s speed=0.0254x elapsed=0:03:00.89    \nframe=  232 fps=1.3 q=34.0 size=    3584KiB time=00:00:04.64 bitrate=6327.6kbits/s speed=0.0256x elapsed=0:03:01.42    \nframe=  233 fps=1.3 q=34.0 size=    3584KiB time=00:00:04.66 bitrate=6300.5kbits/s speed=0.0256x elapsed=0:03:01.98    \nframe=  235 fps=1.3 q=34.0 size=    3584KiB time=00:00:04.70 bitrate=6246.8kbits/s speed=0.0257x elapsed=0:03:02.58    \nframe=  237 fps=1.3 q=35.0 size=    3584KiB time=00:00:04.74 bitrate=6194.1kbits/s speed=0.0259x elapsed=0:03:03.34    \nframe=  239 fps=1.3 q=36.0 size=    3584KiB time=00:00:04.78 bitrate=6142.3kbits/s speed=0.026x elapsed=0:03:04.17    \nframe=  240 fps=1.3 q=21.0 size=    3584KiB time=00:00:04.80 bitrate=6116.7kbits/s speed=0.0259x elapsed=0:03:05.06    \nframe=  242 fps=1.3 q=32.0 size=    3584KiB time=00:00:04.84 bitrate=6066.1kbits/s speed=0.026x elapsed=0:03:05.94    \nframe=  244 fps=1.3 q=33.0 size=    3584KiB time=00:00:04.86 bitrate=6041.2kbits/s speed=0.026x elapsed=0:03:06.76    \nframe=  245 fps=1.3 q=33.0 size=    3584KiB time=00:00:04.90 bitrate=5991.9kbits/s speed=0.0262x elapsed=0:03:07.35    \nframe=  246 fps=1.3 q=34.0 size=    3584KiB time=00:00:04.92 bitrate=5967.5kbits/s speed=0.0262x elapsed=0:03:07.91    \nframe=  247 fps=1.3 q=34.0 size=    3584KiB time=00:00:04.94 bitrate=5943.3kbits/s speed=0.0262x elapsed=0:03:08.44    \nframe=  247 fps=1.3 q=34.0 size=    3584KiB time=00:00:04.94 bitrate=5943.3kbits/s speed=0.0261x elapsed=0:03:09.02    \nframe=  248 fps=1.3 q=19.0 size=    3584KiB time=00:00:04.96 bitrate=5919.4kbits/s speed=0.0262x elapsed=0:03:09.55    \nframe=  249 fps=1.3 q=34.0 size=    3584KiB time=00:00:04.98 bitrate=5895.6kbits/s speed=0.0262x elapsed=0:03:10.11    \nframe=  251 fps=1.3 q=34.0 size=    3584KiB time=00:00:05.02 bitrate=5848.6kbits/s speed=0.0263x elapsed=0:03:10.68    \nframe=  252 fps=1.3 q=34.0 size=    3584KiB time=00:00:05.04 bitrate=5825.4kbits/s speed=0.0263x elapsed=0:03:11.28    \nframe=  253 fps=1.3 q=34.0 size=    3584KiB time=00:00:05.06 bitrate=5802.4kbits/s speed=0.0264x elapsed=0:03:11.82    \nframe=  254 fps=1.3 q=34.0 size=    3584KiB time=00:00:05.08 bitrate=5779.6kbits/s speed=0.0264x elapsed=0:03:12.34    \nframe=  255 fps=1.3 q=34.0 size=    3584KiB time=00:00:05.10 bitrate=5756.9kbits/s speed=0.0264x elapsed=0:03:12.86    \nframe=  256 fps=1.3 q=34.0 size=    3584KiB time=00:00:05.12 bitrate=5734.4kbits/s speed=0.0265x elapsed=0:03:13.38    \nframe=  256 fps=1.3 q=34.0 size=    3584KiB time=00:00:05.12 bitrate=5734.4kbits/s speed=0.0264x elapsed=0:03:13.89    \nframe=  257 fps=1.3 q=11.0 size=    3584KiB time=00:00:05.14 bitrate=5712.1kbits/s speed=0.0264x elapsed=0:03:14.42    \nframe=  258 fps=1.3 q=33.0 size=    7424KiB time=00:00:05.16 bitrate=11786.3kbits/s speed=0.0265x elapsed=0:03:14.93    \nframe=  259 fps=1.3 q=32.0 size=    7424KiB time=00:00:05.18 bitrate=11740.8kbits/s speed=0.0265x elapsed=0:03:15.44    \nframe=  261 fps=1.3 q=32.0 size=    7424KiB time=00:00:05.22 bitrate=11650.8kbits/s speed=0.0266x elapsed=0:03:15.96    \nframe=  262 fps=1.3 q=32.0 size=    7424KiB time=00:00:05.24 bitrate=11606.4kbits/s speed=0.0267x elapsed=0:03:16.48    \nframe=  263 fps=1.3 q=32.0 size=    7424KiB time=00:00:05.26 bitrate=11562.2kbits/s speed=0.0267x elapsed=0:03:16.99    \nframe=  264 fps=1.3 q=32.0 size=    7424KiB time=00:00:05.28 bitrate=11518.4kbits/s speed=0.0267x elapsed=0:03:17.51    \nframe=  266 fps=1.3 q=32.0 size=    7424KiB time=00:00:05.32 bitrate=11431.8kbits/s speed=0.0269x elapsed=0:03:18.03    \nframe=  267 fps=1.3 q=32.0 size=    7424KiB time=00:00:05.34 bitrate=11389.0kbits/s speed=0.0269x elapsed=0:03:18.53    \nframe=  267 fps=1.3 q=32.0 size=    7424KiB time=00:00:05.34 bitrate=11389.0kbits/s speed=0.0268x elapsed=0:03:19.05    \nframe=  268 fps=1.3 q=17.0 size=    7424KiB time=00:00:05.36 bitrate=11346.5kbits/s speed=0.0269x elapsed=0:03:19.57    \nframe=  269 fps=1.3 q=32.0 size=    7424KiB time=00:00:05.38 bitrate=11304.4kbits/s speed=0.0269x elapsed=0:03:20.09    \nframe=  270 fps=1.3 q=32.0 size=    7424KiB time=00:00:05.40 bitrate=11262.5kbits/s speed=0.0269x elapsed=0:03:20.60    \nframe=  271 fps=1.3 q=31.0 size=    7424KiB time=00:00:05.42 bitrate=11220.9kbits/s speed=0.0269x elapsed=0:03:21.12    \nframe=  272 fps=1.3 q=31.0 size=    7424KiB time=00:00:05.44 bitrate=11179.7kbits/s speed=0.027x elapsed=0:03:21.64    \nframe=  273 fps=1.4 q=31.0 size=    7424KiB time=00:00:05.46 bitrate=11138.7kbits/s speed=0.027x elapsed=0:03:22.15    \nframe=  274 fps=1.4 q=31.0 size=    7424KiB time=00:00:05.48 bitrate=11098.1kbits/s speed=0.027x elapsed=0:03:22.66    \nframe=  275 fps=1.4 q=31.0 size=    7424KiB time=00:00:05.50 bitrate=11057.7kbits/s speed=0.0271x elapsed=0:03:23.19    \nframe=  276 fps=1.4 q=30.0 size=    7424KiB time=00:00:05.52 bitrate=11017.6kbits/s speed=0.0271x elapsed=0:03:23.69    \nframe=  277 fps=1.4 q=31.0 size=    7424KiB time=00:00:05.54 bitrate=10977.9kbits/s speed=0.0271x elapsed=0:03:24.21    \nframe=  278 fps=1.4 q=31.0 size=    7424KiB time=00:00:05.56 bitrate=10938.4kbits/s speed=0.0272x elapsed=0:03:24.73    \nframe=  278 fps=1.4 q=31.0 size=    7424KiB time=00:00:05.56 bitrate=10938.4kbits/s speed=0.0271x elapsed=0:03:25.25    \nframe=  280 fps=1.4 q=31.0 size=    7424KiB time=00:00:05.60 bitrate=10860.3kbits/s speed=0.0272x elapsed=0:03:25.76    \nframe=  281 fps=1.4 q=31.0 size=    7424KiB time=00:00:05.62 bitrate=10821.6kbits/s speed=0.0272x elapsed=0:03:26.27    \nframe=  282 fps=1.4 q=32.0 size=    7424KiB time=00:00:05.64 bitrate=10783.2kbits/s speed=0.0273x elapsed=0:03:26.78    \nframe=  283 fps=1.4 q=32.0 size=    7424KiB time=00:00:05.66 bitrate=10745.1kbits/s speed=0.0273x elapsed=0:03:27.30    \nframe=  284 fps=1.4 q=32.0 size=    7424KiB time=00:00:05.68 bitrate=10707.3kbits/s speed=0.0273x elapsed=0:03:27.82    \nframe=  285 fps=1.4 q=32.0 size=    7424KiB time=00:00:05.70 bitrate=10669.7kbits/s speed=0.0274x elapsed=0:03:28.34    \nframe=  286 fps=1.4 q=33.0 size=    7424KiB time=00:00:05.72 bitrate=10632.4kbits/s speed=0.0274x elapsed=0:03:28.85    \nframe=  288 fps=1.4 q=33.0 size=    7424KiB time=00:00:05.76 bitrate=10558.6kbits/s speed=0.0275x elapsed=0:03:29.38    \nframe=  289 fps=1.4 q=33.0 size=    7424KiB time=00:00:05.78 bitrate=10522.0kbits/s speed=0.0275x elapsed=0:03:29.90    \nframe=  289 fps=1.4 q=33.0 size=    7424KiB time=00:00:05.78 bitrate=10522.0kbits/s speed=0.0275x elapsed=0:03:30.41    \nframe=  289 fps=1.4 q=33.0 size=    7424KiB time=00:00:05.78 bitrate=10522.0kbits/s speed=0.0274x elapsed=0:03:30.94    \nframe=  291 fps=1.4 q=33.0 size=    7424KiB time=00:00:05.82 bitrate=10449.7kbits/s speed=0.0275x elapsed=0:03:31.46    \nframe=  292 fps=1.4 q=32.0 size=    7424KiB time=00:00:05.84 bitrate=10413.9kbits/s speed=0.0276x elapsed=0:03:31.97    \nframe=  293 fps=1.4 q=32.0 size=    7424KiB time=00:00:05.86 bitrate=10378.4kbits/s speed=0.0276x elapsed=0:03:32.50    \nframe=  294 fps=1.4 q=33.0 size=    7424KiB time=00:00:05.88 bitrate=10343.1kbits/s speed=0.0276x elapsed=0:03:33.01    \nframe=  294 fps=1.4 q=33.0 size=    7424KiB time=00:00:05.88 bitrate=10343.1kbits/s speed=0.0275x elapsed=0:03:33.52    \nframe=  295 fps=1.4 q=33.0 size=    7424KiB time=00:00:05.90 bitrate=10308.0kbits/s speed=0.0276x elapsed=0:03:34.04    \nframe=  296 fps=1.4 q=33.0 size=    7424KiB time=00:00:05.92 bitrate=10273.2kbits/s speed=0.0276x elapsed=0:03:34.56    \nframe=  297 fps=1.4 q=34.0 size=    7424KiB time=00:00:05.94 bitrate=10238.6kbits/s speed=0.0276x elapsed=0:03:35.07    \nframe=  297 fps=1.4 q=34.0 size=    7424KiB time=00:00:05.94 bitrate=10238.6kbits/s speed=0.0276x elapsed=0:03:35.58    \nframe=  298 fps=1.4 q=34.0 size=    7424KiB time=00:00:05.96 bitrate=10204.3kbits/s speed=0.0276x elapsed=0:03:36.11    \nframe=  298 fps=1.4 q=34.0 size=    7424KiB time=00:00:05.96 bitrate=10204.3kbits/s speed=0.0275x elapsed=0:03:36.61    \nframe=  299 fps=1.4 q=35.0 size=    7424KiB time=00:00:05.98 bitrate=10170.1kbits/s speed=0.0275x elapsed=0:03:37.14    \nframe=  299 fps=1.4 q=35.0 size=    7424KiB time=00:00:05.98 bitrate=10170.1kbits/s speed=0.0275x elapsed=0:03:37.66    \nframe=  300 fps=1.4 q=36.0 size=    7424KiB time=00:00:06.00 bitrate=10136.2kbits/s speed=0.0275x elapsed=0:03:38.16    \nframe=  300 fps=1.4 q=36.0 size=    7424KiB time=00:00:06.00 bitrate=10136.2kbits/s speed=0.0274x elapsed=0:03:38.69    \nframe=  300 fps=1.4 q=36.0 size=    7424KiB time=00:00:06.00 bitrate=10136.2kbits/s speed=0.0274x elapsed=0:03:39.19    \nframe=  300 fps=1.4 q=36.0 size=    7424KiB time=00:00:06.00 bitrate=10136.2kbits/s speed=0.0273x elapsed=0:03:39.72    \nframe=  301 fps=1.4 q=19.0 size=    7424KiB time=00:00:06.02 bitrate=10102.6kbits/s speed=0.0273x elapsed=0:03:40.23    \nframe=  302 fps=1.4 q=36.0 size=    7424KiB time=00:00:06.04 bitrate=10069.1kbits/s speed=0.0274x elapsed=0:03:40.75    \nframe=  302 fps=1.4 q=36.0 size=    7424KiB time=00:00:06.04 bitrate=10069.1kbits/s speed=0.0273x elapsed=0:03:41.26    \nframe=  303 fps=1.4 q=36.0 size=    7424KiB time=00:00:06.06 bitrate=10035.9kbits/s speed=0.0273x elapsed=0:03:41.78    \nframe=  304 fps=1.4 q=37.0 size=    7424KiB time=00:00:06.08 bitrate=10002.9kbits/s speed=0.0274x elapsed=0:03:42.30    \nframe=  304 fps=1.4 q=37.0 size=    7424KiB time=00:00:06.08 bitrate=10002.9kbits/s speed=0.0273x elapsed=0:03:42.80    \nframe=  305 fps=1.4 q=37.0 size=    7424KiB time=00:00:06.10 bitrate=9970.1kbits/s speed=0.0273x elapsed=0:03:43.33    \nframe=  306 fps=1.4 q=37.0 size=    7424KiB time=00:00:06.12 bitrate=9937.5kbits/s speed=0.0273x elapsed=0:03:43.83    \nframe=  307 fps=1.4 q=37.0 size=    7424KiB time=00:00:06.14 bitrate=9905.1kbits/s speed=0.0274x elapsed=0:03:44.35    \nframe=  308 fps=1.4 q=37.0 size=    7424KiB time=00:00:06.16 bitrate=9873.0kbits/s speed=0.0274x elapsed=0:03:44.86    \nframe=  308 fps=1.4 q=37.0 size=    7424KiB time=00:00:06.16 bitrate=9873.0kbits/s speed=0.0273x elapsed=0:03:45.39    \nframe=  309 fps=1.4 q=37.0 size=    7424KiB time=00:00:06.18 bitrate=9841.0kbits/s speed=0.0274x elapsed=0:03:45.90    \nframe=  310 fps=1.4 q=36.0 size=    7424KiB time=00:00:06.20 bitrate=9809.3kbits/s speed=0.0274x elapsed=0:03:46.41    \nframe=  310 fps=1.4 q=36.0 size=    7424KiB time=00:00:06.20 bitrate=9809.3kbits/s speed=0.0273x elapsed=0:03:46.93    \nframe=  311 fps=1.4 q=36.0 size=    7424KiB time=00:00:06.22 bitrate=9777.7kbits/s speed=0.0273x elapsed=0:03:47.45    \nframe=  311 fps=1.4 q=36.0 size=    7424KiB time=00:00:06.22 bitrate=9777.7kbits/s speed=0.0273x elapsed=0:03:47.96    \nframe=  311 fps=1.4 q=36.0 size=    7424KiB time=00:00:06.22 bitrate=9777.7kbits/s speed=0.0272x elapsed=0:03:48.48    \nframe=  311 fps=1.4 q=36.0 size=    7424KiB time=00:00:06.22 bitrate=9777.7kbits/s speed=0.0272x elapsed=0:03:48.99    \nframe=  312 fps=1.4 q=16.0 size=    7424KiB time=00:00:06.24 bitrate=9746.4kbits/s speed=0.0272x elapsed=0:03:49.50    \nframe=  313 fps=1.4 q=40.0 size=    7424KiB time=00:00:06.26 bitrate=9715.2kbits/s speed=0.0272x elapsed=0:03:50.03    \nframe=  314 fps=1.4 q=39.0 size=    7424KiB time=00:00:06.28 bitrate=9684.3kbits/s speed=0.0272x elapsed=0:03:50.54    \nframe=  316 fps=1.4 q=38.0 size=    7424KiB time=00:00:06.32 bitrate=9623.0kbits/s speed=0.0274x elapsed=0:03:51.06    \nframe=  317 fps=1.4 q=38.0 size=    7424KiB time=00:00:06.34 bitrate=9592.7kbits/s speed=0.0274x elapsed=0:03:51.58    \nframe=  318 fps=1.4 q=38.0 size=    7424KiB time=00:00:06.36 bitrate=9562.5kbits/s speed=0.0274x elapsed=0:03:52.08    \nframe=  319 fps=1.4 q=38.0 size=    7424KiB time=00:00:06.38 bitrate=9532.5kbits/s speed=0.0274x elapsed=0:03:52.60    \nframe=  321 fps=1.4 q=37.0 size=    7424KiB time=00:00:06.42 bitrate=9473.1kbits/s speed=0.0275x elapsed=0:03:53.11    \nframe=  322 fps=1.4 q=37.0 size=    7424KiB time=00:00:06.44 bitrate=9443.7kbits/s speed=0.0276x elapsed=0:03:53.63    \nframe=  322 fps=1.4 q=37.0 size=    7424KiB time=00:00:06.44 bitrate=9443.7kbits/s speed=0.0275x elapsed=0:03:54.16    \nframe=  322 fps=1.4 q=37.0 size=    7424KiB time=00:00:06.44 bitrate=9443.7kbits/s speed=0.0274x elapsed=0:03:54.67    \nframe=  324 fps=1.4 q=36.0 size=    7424KiB time=00:00:06.48 bitrate=9385.4kbits/s speed=0.0276x elapsed=0:03:55.19    \nframe=  324 fps=1.4 q=36.0 size=    7424KiB time=00:00:06.48 bitrate=9385.4kbits/s speed=0.0275x elapsed=0:03:55.70    \nframe=  326 fps=1.4 q=37.0 size=    7424KiB time=00:00:06.52 bitrate=9327.8kbits/s speed=0.0276x elapsed=0:03:56.22    \nframe=  327 fps=1.4 q=37.0 size=    7424KiB time=00:00:06.54 bitrate=9299.3kbits/s speed=0.0276x elapsed=0:03:56.74    \nframe=  328 fps=1.4 q=37.0 size=    7424KiB time=00:00:06.56 bitrate=9270.9kbits/s speed=0.0276x elapsed=0:03:57.26    \nframe=  330 fps=1.4 q=37.0 size=    7424KiB time=00:00:06.60 bitrate=9214.8kbits/s speed=0.0278x elapsed=0:03:57.78    \nframe=  331 fps=1.4 q=37.0 size=    7424KiB time=00:00:06.62 bitrate=9186.9kbits/s speed=0.0278x elapsed=0:03:58.28    \nframe=  332 fps=1.4 q=36.0 size=    7424KiB time=00:00:06.64 bitrate=9159.2kbits/s speed=0.0278x elapsed=0:03:58.81    \nframe=  333 fps=1.4 q=36.0 size=    7424KiB time=00:00:06.66 bitrate=9131.7kbits/s speed=0.0278x elapsed=0:03:59.32    \nframe=  334 fps=1.4 q=27.0 size=    7424KiB time=00:00:06.68 bitrate=9104.4kbits/s speed=0.0279x elapsed=0:03:59.84    \nframe=  335 fps=1.4 q=34.0 size=    7424KiB time=00:00:06.70 bitrate=9077.2kbits/s speed=0.0279x elapsed=0:04:00.35    \nframe=  336 fps=1.4 q=33.0 size=    7424KiB time=00:00:06.72 bitrate=9050.2kbits/s speed=0.0279x elapsed=0:04:00.87    \nframe=  337 fps=1.4 q=33.0 size=    7424KiB time=00:00:06.74 bitrate=9023.4kbits/s speed=0.0279x elapsed=0:04:01.38    \nframe=  339 fps=1.4 q=33.0 size=    7424KiB time=00:00:06.78 bitrate=8970.1kbits/s speed=0.028x elapsed=0:04:01.90    \nframe=  339 fps=1.4 q=33.0 size=    7424KiB time=00:00:06.78 bitrate=8970.1kbits/s speed=0.028x elapsed=0:04:02.41    \nframe=  339 fps=1.4 q=33.0 size=    7424KiB time=00:00:06.78 bitrate=8970.1kbits/s speed=0.0279x elapsed=0:04:02.93    \nframe=  340 fps=1.4 q=11.0 size=    7424KiB time=00:00:06.80 bitrate=8943.7kbits/s speed=0.0279x elapsed=0:04:03.45    \nframe=  341 fps=1.4 q=37.0 size=    7424KiB time=00:00:06.82 bitrate=8917.5kbits/s speed=0.028x elapsed=0:04:03.96    \nframe=  342 fps=1.4 q=35.0 size=    7424KiB time=00:00:06.84 bitrate=8891.4kbits/s speed=0.028x elapsed=0:04:04.48    \nframe=  344 fps=1.4 q=35.0 size=    7424KiB time=00:00:06.88 bitrate=8839.7kbits/s speed=0.0281x elapsed=0:04:04.99    \nframe=  345 fps=1.4 q=35.0 size=    7424KiB time=00:00:06.90 bitrate=8814.1kbits/s speed=0.0281x elapsed=0:04:05.51    \nframe=  346 fps=1.4 q=34.0 size=    7424KiB time=00:00:06.92 bitrate=8788.6kbits/s speed=0.0281x elapsed=0:04:06.03    \nframe=  347 fps=1.4 q=34.0 size=    7424KiB time=00:00:06.94 bitrate=8763.3kbits/s speed=0.0281x elapsed=0:04:06.55    \nframe=  349 fps=1.4 q=33.0 size=    7424KiB time=00:00:06.98 bitrate=8713.1kbits/s speed=0.0283x elapsed=0:04:07.07    \nframe=  350 fps=1.4 q=33.0 size=    7424KiB time=00:00:07.00 bitrate=8688.2kbits/s speed=0.0283x elapsed=0:04:07.59    \nframe=  352 fps=1.4 q=27.0 size=    7424KiB time=00:00:07.04 bitrate=8638.8kbits/s speed=0.0284x elapsed=0:04:08.10    \nframe=  353 fps=1.4 q=27.0 size=    7424KiB time=00:00:07.06 bitrate=8614.4kbits/s speed=0.0284x elapsed=0:04:08.62    \nframe=  354 fps=1.4 q=28.0 size=    7424KiB time=00:00:07.08 bitrate=8590.0kbits/s speed=0.0284x elapsed=0:04:09.13    \nframe=  356 fps=1.4 q=29.0 size=    7424KiB time=00:00:07.12 bitrate=8541.8kbits/s speed=0.0285x elapsed=0:04:09.65    \nframe=  357 fps=1.4 q=29.0 size=    7424KiB time=00:00:07.14 bitrate=8517.8kbits/s speed=0.0285x elapsed=0:04:10.17    \nframe=  358 fps=1.4 q=29.0 size=    7424KiB time=00:00:07.16 bitrate=8494.1kbits/s speed=0.0286x elapsed=0:04:10.68    \nframe=  359 fps=1.4 q=29.0 size=    7424KiB time=00:00:07.18 bitrate=8470.4kbits/s speed=0.0286x elapsed=0:04:11.20    \nframe=  360 fps=1.4 q=29.0 size=    7424KiB time=00:00:07.20 bitrate=8446.9kbits/s speed=0.0286x elapsed=0:04:11.72    \nframe=  361 fps=1.4 q=30.0 size=    7424KiB time=00:00:07.22 bitrate=8423.5kbits/s speed=0.0286x elapsed=0:04:12.22    \nframe=  361 fps=1.4 q=30.0 size=    7424KiB time=00:00:07.22 bitrate=8423.5kbits/s speed=0.0286x elapsed=0:04:12.74    \nframe=  361 fps=1.4 q=30.0 size=    7424KiB time=00:00:07.22 bitrate=8423.5kbits/s speed=0.0285x elapsed=0:04:13.26    \nframe=  362 fps=1.4 q=15.0 size=    7424KiB time=00:00:07.24 bitrate=8400.2kbits/s speed=0.0285x elapsed=0:04:13.77    \nframe=  363 fps=1.4 q=30.0 size=    7424KiB time=00:00:07.26 bitrate=8377.1kbits/s speed=0.0285x elapsed=0:04:14.29    \nframe=  363 fps=1.4 q=30.0 size=    7424KiB time=00:00:07.26 bitrate=8377.1kbits/s speed=0.0285x elapsed=0:04:14.81    \nframe=  364 fps=1.4 q=29.0 size=    7424KiB time=00:00:07.28 bitrate=8354.0kbits/s speed=0.0285x elapsed=0:04:15.32    \nframe=  365 fps=1.4 q=30.0 size=    7424KiB time=00:00:07.30 bitrate=8331.2kbits/s speed=0.0285x elapsed=0:04:15.84    \nframe=  365 fps=1.4 q=30.0 size=    7424KiB time=00:00:07.30 bitrate=8331.2kbits/s speed=0.0285x elapsed=0:04:16.35    \nframe=  366 fps=1.4 q=31.0 size=    7424KiB time=00:00:07.32 bitrate=8308.4kbits/s speed=0.0285x elapsed=0:04:16.86    \nframe=  367 fps=1.4 q=31.0 size=    7424KiB time=00:00:07.34 bitrate=8285.8kbits/s speed=0.0285x elapsed=0:04:17.38    \nframe=  368 fps=1.4 q=32.0 size=    7424KiB time=00:00:07.36 bitrate=8263.2kbits/s speed=0.0285x elapsed=0:04:17.90    \nframe=  368 fps=1.4 q=32.0 size=    7424KiB time=00:00:07.36 bitrate=8263.2kbits/s speed=0.0285x elapsed=0:04:18.41    \nframe=  369 fps=1.4 q=32.0 size=    7424KiB time=00:00:07.38 bitrate=8240.8kbits/s speed=0.0285x elapsed=0:04:18.93    \nframe=  370 fps=1.4 q=31.0 size=    7424KiB time=00:00:07.40 bitrate=8218.6kbits/s speed=0.0285x elapsed=0:04:19.44    \nframe=  371 fps=1.4 q=32.0 size=    7424KiB time=00:00:07.42 bitrate=8196.4kbits/s speed=0.0285x elapsed=0:04:19.96    \nframe=  372 fps=1.4 q=32.0 size=    7424KiB time=00:00:07.44 bitrate=8174.4kbits/s speed=0.0286x elapsed=0:04:20.48    \nframe=  372 fps=1.4 q=32.0 size=    7424KiB time=00:00:07.44 bitrate=8174.4kbits/s speed=0.0285x elapsed=0:04:20.99    \nframe=  372 fps=1.4 q=32.0 size=    7424KiB time=00:00:07.44 bitrate=8174.4kbits/s speed=0.0284x elapsed=0:04:21.51    \nframe=  372 fps=1.4 q=32.0 size=    7424KiB time=00:00:07.44 bitrate=8174.4kbits/s speed=0.0284x elapsed=0:04:22.03    \nframe=  373 fps=1.4 q=23.0 size=    7424KiB time=00:00:07.46 bitrate=8152.5kbits/s speed=0.0284x elapsed=0:04:22.54    \nframe=  374 fps=1.4 q=33.0 size=    7424KiB time=00:00:07.48 bitrate=8130.7kbits/s speed=0.0284x elapsed=0:04:23.05    \nframe=  375 fps=1.4 q=32.0 size=    7424KiB time=00:00:07.50 bitrate=8109.0kbits/s speed=0.0285x elapsed=0:04:23.57    \nframe=  375 fps=1.4 q=32.0 size=    7424KiB time=00:00:07.50 bitrate=8109.0kbits/s speed=0.0284x elapsed=0:04:24.08    \nframe=  376 fps=1.4 q=32.0 size=    7424KiB time=00:00:07.52 bitrate=8087.4kbits/s speed=0.0284x elapsed=0:04:24.60    \nframe=  377 fps=1.4 q=32.0 size=    7424KiB time=00:00:07.54 bitrate=8066.0kbits/s speed=0.0284x elapsed=0:04:25.11    \nframe=  378 fps=1.4 q=33.0 size=    7424KiB time=00:00:07.56 bitrate=8044.6kbits/s speed=0.0285x elapsed=0:04:25.64    \nframe=  378 fps=1.4 q=33.0 size=    7424KiB time=00:00:07.56 bitrate=8044.6kbits/s speed=0.0284x elapsed=0:04:26.14    \nframe=  378 fps=1.4 q=33.0 size=    7424KiB time=00:00:07.56 bitrate=8044.6kbits/s speed=0.0283x elapsed=0:04:26.66    \nframe=  379 fps=1.4 q=20.0 size=    7424KiB time=00:00:07.58 bitrate=8023.4kbits/s speed=0.0284x elapsed=0:04:27.18    \nframe=  380 fps=1.4 q=35.0 size=    7424KiB time=00:00:07.60 bitrate=8002.3kbits/s speed=0.0284x elapsed=0:04:27.70    \nframe=  381 fps=1.4 q=32.0 size=    7424KiB time=00:00:07.62 bitrate=7981.3kbits/s speed=0.0284x elapsed=0:04:28.21    \nframe=  381 fps=1.4 q=32.0 size=    7424KiB time=00:00:07.62 bitrate=7981.3kbits/s speed=0.0284x elapsed=0:04:28.73    \nframe=  382 fps=1.4 q=32.0 size=    7424KiB time=00:00:07.64 bitrate=7960.4kbits/s speed=0.0284x elapsed=0:04:29.24    \nframe=  383 fps=1.4 q=32.0 size=    7424KiB time=00:00:07.66 bitrate=7939.6kbits/s speed=0.0284x elapsed=0:04:29.76    \nframe=  384 fps=1.4 q=32.0 size=    7424KiB time=00:00:07.68 bitrate=7918.9kbits/s speed=0.0284x elapsed=0:04:30.29    \nframe=  384 fps=1.4 q=32.0 size=    7424KiB time=00:00:07.68 bitrate=7918.9kbits/s speed=0.0284x elapsed=0:04:30.80    \nframe=  385 fps=1.4 q=20.0 size=    7424KiB time=00:00:07.70 bitrate=7898.4kbits/s speed=0.0284x elapsed=0:04:31.32    \nframe=  386 fps=1.4 q=33.0 size=   11520KiB time=00:00:07.72 bitrate=12224.3kbits/s speed=0.0284x elapsed=0:04:31.84    \nframe=  387 fps=1.4 q=31.0 size=   11520KiB time=00:00:07.74 bitrate=12192.7kbits/s speed=0.0284x elapsed=0:04:32.36    \nframe=  388 fps=1.4 q=32.0 size=   11520KiB time=00:00:07.76 bitrate=12161.3kbits/s speed=0.0284x elapsed=0:04:32.89    \nframe=  390 fps=1.4 q=32.0 size=   11520KiB time=00:00:07.78 bitrate=12130.1kbits/s speed=0.0285x elapsed=0:04:33.40    \nframe=  391 fps=1.4 q=32.0 size=   11520KiB time=00:00:07.82 bitrate=12068.0kbits/s speed=0.0285x elapsed=0:04:33.98    \nframe=  393 fps=1.4 q=33.0 size=   11520KiB time=00:00:07.86 bitrate=12006.6kbits/s speed=0.0286x elapsed=0:04:34.50    \nframe=  395 fps=1.4 q=33.0 size=   11520KiB time=00:00:07.88 bitrate=11976.1kbits/s speed=0.0286x elapsed=0:04:35.19    \nframe=  395 fps=1.4 q=33.0 size=   11520KiB time=00:00:07.90 bitrate=11945.8kbits/s speed=0.0287x elapsed=0:04:35.73    \nframe=  396 fps=1.4 q=24.0 size=   11520KiB time=00:00:07.92 bitrate=11915.6kbits/s speed=0.0287x elapsed=0:04:36.25    \nframe=  397 fps=1.4 q=32.0 size=   11520KiB time=00:00:07.94 bitrate=11885.6kbits/s speed=0.0287x elapsed=0:04:36.79    \nframe=  398 fps=1.4 q=31.0 size=   11520KiB time=00:00:07.96 bitrate=11855.8kbits/s speed=0.0287x elapsed=0:04:37.35    \nframe=  400 fps=1.4 q=32.0 size=   11520KiB time=00:00:07.98 bitrate=11826.0kbits/s speed=0.0287x elapsed=0:04:37.90    \nframe=  400 fps=1.4 q=32.0 size=   11520KiB time=00:00:08.00 bitrate=11796.5kbits/s speed=0.0287x elapsed=0:04:38.48    \nframe=  401 fps=1.4 q=32.0 size=   11520KiB time=00:00:08.02 bitrate=11767.1kbits/s speed=0.0287x elapsed=0:04:39.00    \nframe=  401 fps=1.4 q=32.0 size=   11520KiB time=00:00:08.02 bitrate=11767.1kbits/s speed=0.0287x elapsed=0:04:39.55    \nframe=  402 fps=1.4 q=21.0 size=   11520KiB time=00:00:08.04 bitrate=11737.8kbits/s speed=0.0287x elapsed=0:04:40.21    \nframe=  403 fps=1.4 q=33.0 size=   11520KiB time=00:00:08.06 bitrate=11708.7kbits/s speed=0.0287x elapsed=0:04:40.72    \nframe=  404 fps=1.4 q=32.0 size=   11520KiB time=00:00:08.08 bitrate=11679.7kbits/s speed=0.0287x elapsed=0:04:41.24    \nframe=  406 fps=1.4 q=33.0 size=   11520KiB time=00:00:08.12 bitrate=11622.1kbits/s speed=0.0288x elapsed=0:04:41.75    \nframe=  407 fps=1.4 q=33.0 size=   11520KiB time=00:00:08.14 bitrate=11593.6kbits/s speed=0.0288x elapsed=0:04:42.27    \nframe=  407 fps=1.4 q=33.0 size=   11520KiB time=00:00:08.14 bitrate=11593.6kbits/s speed=0.0288x elapsed=0:04:42.80    \nframe=  408 fps=1.4 q=21.0 size=   11520KiB time=00:00:08.16 bitrate=11565.2kbits/s speed=0.0288x elapsed=0:04:43.31    \nframe=  409 fps=1.4 q=33.0 size=   11520KiB time=00:00:08.18 bitrate=11536.9kbits/s speed=0.0288x elapsed=0:04:43.82    \nframe=  410 fps=1.4 q=33.0 size=   11520KiB time=00:00:08.20 bitrate=11508.8kbits/s speed=0.0288x elapsed=0:04:44.34    \nframe=  411 fps=1.4 q=33.0 size=   11520KiB time=00:00:08.22 bitrate=11480.8kbits/s speed=0.0289x elapsed=0:04:44.86    \nframe=  412 fps=1.4 q=33.0 size=   11520KiB time=00:00:08.24 bitrate=11452.9kbits/s speed=0.0289x elapsed=0:04:45.36    \nframe=  413 fps=1.4 q=34.0 size=   11520KiB time=00:00:08.26 bitrate=11425.2kbits/s speed=0.0289x elapsed=0:04:45.88    \nframe=  413 fps=1.4 q=34.0 size=   11520KiB time=00:00:08.26 bitrate=11425.2kbits/s speed=0.0288x elapsed=0:04:46.40    \nframe=  414 fps=1.4 q=21.0 size=   11520KiB time=00:00:08.28 bitrate=11397.6kbits/s speed=0.0289x elapsed=0:04:46.91    \nframe=  416 fps=1.4 q=33.0 size=   11520KiB time=00:00:08.32 bitrate=11342.8kbits/s speed=0.0289x elapsed=0:04:47.43    \nframe=  417 fps=1.4 q=33.0 size=   11520KiB time=00:00:08.34 bitrate=11315.6kbits/s speed=0.029x elapsed=0:04:47.94    \nframe=  417 fps=1.4 q=33.0 size=   11520KiB time=00:00:08.34 bitrate=11315.6kbits/s speed=0.0289x elapsed=0:04:48.46    \nframe=  418 fps=1.4 q=33.0 size=   11520KiB time=00:00:08.36 bitrate=11288.5kbits/s speed=0.0289x elapsed=0:04:48.98    \nframe=  419 fps=1.4 q=34.0 size=   11520KiB time=00:00:08.38 bitrate=11261.6kbits/s speed=0.0289x elapsed=0:04:49.49    \nframe=  420 fps=1.4 q=22.0 size=   11520KiB time=00:00:08.40 bitrate=11234.7kbits/s speed=0.029x elapsed=0:04:50.01    \nframe=  421 fps=1.4 q=34.0 size=   11520KiB time=00:00:08.42 bitrate=11208.1kbits/s speed=0.029x elapsed=0:04:50.53    \nframe=  422 fps=1.4 q=34.0 size=   11520KiB time=00:00:08.44 bitrate=11181.5kbits/s speed=0.029x elapsed=0:04:51.04    \nframe=  423 fps=1.5 q=34.0 size=   11520KiB time=00:00:08.46 bitrate=11155.1kbits/s speed=0.029x elapsed=0:04:51.56    \nframe=  424 fps=1.5 q=34.0 size=   11520KiB time=00:00:08.48 bitrate=11128.8kbits/s speed=0.029x elapsed=0:04:52.08    \nframe=  425 fps=1.5 q=36.0 size=   11520KiB time=00:00:08.50 bitrate=11102.6kbits/s speed=0.0291x elapsed=0:04:52.58    \nframe=  425 fps=1.5 q=36.0 size=   11520KiB time=00:00:08.50 bitrate=11102.6kbits/s speed=0.029x elapsed=0:04:53.10    \nframe=  425 fps=1.4 q=36.0 size=   11520KiB time=00:00:08.50 bitrate=11102.6kbits/s speed=0.0289x elapsed=0:04:53.61    \nframe=  425 fps=1.4 q=36.0 size=   11520KiB time=00:00:08.50 bitrate=11102.6kbits/s speed=0.0289x elapsed=0:04:54.13    \nframe=  426 fps=1.4 q=19.0 size=   11520KiB time=00:00:08.52 bitrate=11076.5kbits/s speed=0.0289x elapsed=0:04:54.65    \nframe=  427 fps=1.4 q=35.0 size=   11520KiB time=00:00:08.54 bitrate=11050.6kbits/s speed=0.0289x elapsed=0:04:55.16    \nframe=  428 fps=1.4 q=35.0 size=   11520KiB time=00:00:08.56 bitrate=11024.7kbits/s speed=0.0289x elapsed=0:04:55.68    \nframe=  429 fps=1.4 q=35.0 size=   11520KiB time=00:00:08.58 bitrate=10999.0kbits/s speed=0.029x elapsed=0:04:56.20    \nframe=  430 fps=1.4 q=35.0 size=   11520KiB time=00:00:08.60 bitrate=10973.5kbits/s speed=0.029x elapsed=0:04:56.71    \nframe=  431 fps=1.5 q=36.0 size=   11520KiB time=00:00:08.62 bitrate=10948.0kbits/s speed=0.029x elapsed=0:04:57.22    \nframe=  432 fps=1.5 q=36.0 size=   11520KiB time=00:00:08.64 bitrate=10922.7kbits/s speed=0.029x elapsed=0:04:57.74    \nframe=  433 fps=1.5 q=36.0 size=   11520KiB time=00:00:08.66 bitrate=10897.4kbits/s speed=0.029x elapsed=0:04:58.27    \nframe=  435 fps=1.5 q=36.0 size=   11520KiB time=00:00:08.70 bitrate=10847.3kbits/s speed=0.0291x elapsed=0:04:58.77    \nframe=  435 fps=1.5 q=36.0 size=   11520KiB time=00:00:08.70 bitrate=10847.3kbits/s speed=0.0291x elapsed=0:04:59.28    \nframe=  436 fps=1.5 q=36.0 size=   11520KiB time=00:00:08.72 bitrate=10822.5kbits/s speed=0.0291x elapsed=0:04:59.81    \nframe=  436 fps=1.5 q=36.0 size=   11520KiB time=00:00:08.72 bitrate=10822.5kbits/s speed=0.029x elapsed=0:05:00.32    \nframe=  436 fps=1.4 q=36.0 size=   11520KiB time=00:00:08.72 bitrate=10822.5kbits/s speed=0.029x elapsed=0:05:00.84    \nframe=  438 fps=1.5 q=39.0 size=   11520KiB time=00:00:08.76 bitrate=10773.0kbits/s speed=0.0291x elapsed=0:05:01.35    \nframe=  439 fps=1.5 q=37.0 size=   11520KiB time=00:00:08.78 bitrate=10748.5kbits/s speed=0.0291x elapsed=0:05:01.86    \nframe=  440 fps=1.5 q=38.0 size=   11520KiB time=00:00:08.80 bitrate=10724.1kbits/s speed=0.0291x elapsed=0:05:02.38    \nframe=  441 fps=1.5 q=38.0 size=   11520KiB time=00:00:08.82 bitrate=10699.8kbits/s speed=0.0291x elapsed=0:05:02.90    \nframe=  443 fps=1.5 q=38.0 size=   11520KiB time=00:00:08.86 bitrate=10651.4kbits/s speed=0.0292x elapsed=0:05:03.42    \nframe=  444 fps=1.5 q=39.0 size=   11520KiB time=00:00:08.88 bitrate=10627.5kbits/s speed=0.0292x elapsed=0:05:03.93    \nframe=  445 fps=1.5 q=39.0 size=   11520KiB time=00:00:08.90 bitrate=10603.6kbits/s speed=0.0292x elapsed=0:05:04.44    \nframe=  446 fps=1.5 q=39.0 size=   11520KiB time=00:00:08.92 bitrate=10579.8kbits/s speed=0.0292x elapsed=0:05:04.96    \nframe=  447 fps=1.5 q=39.0 size=   11520KiB time=00:00:08.94 bitrate=10556.1kbits/s speed=0.0293x elapsed=0:05:05.47    \nframe=  448 fps=1.5 q=27.0 size=   11520KiB time=00:00:08.96 bitrate=10532.6kbits/s speed=0.0293x elapsed=0:05:05.99    \nframe=  449 fps=1.5 q=37.0 size=   11520KiB time=00:00:08.98 bitrate=10509.1kbits/s speed=0.0293x elapsed=0:05:06.51    \nframe=  451 fps=1.5 q=36.0 size=   11520KiB time=00:00:09.02 bitrate=10462.5kbits/s speed=0.0294x elapsed=0:05:07.03    \nframe=  453 fps=1.5 q=36.0 size=   11520KiB time=00:00:09.06 bitrate=10416.3kbits/s speed=0.0295x elapsed=0:05:07.54    \nframe=  453 fps=1.5 q=36.0 size=   11520KiB time=00:00:09.06 bitrate=10416.3kbits/s speed=0.0294x elapsed=0:05:08.05    \nframe=  454 fps=1.5 q=25.0 size=   11520KiB time=00:00:09.08 bitrate=10393.4kbits/s speed=0.0294x elapsed=0:05:08.57    \nframe=  456 fps=1.5 q=34.0 size=   11520KiB time=00:00:09.12 bitrate=10347.8kbits/s speed=0.0295x elapsed=0:05:09.08    \nframe=  457 fps=1.5 q=34.0 size=   11520KiB time=00:00:09.14 bitrate=10325.1kbits/s speed=0.0295x elapsed=0:05:09.60    \nframe=  458 fps=1.5 q=34.0 size=   11520KiB time=00:00:09.16 bitrate=10302.6kbits/s speed=0.0295x elapsed=0:05:10.11    \nframe=  459 fps=1.5 q=34.0 size=   11520KiB time=00:00:09.18 bitrate=10280.2kbits/s speed=0.0296x elapsed=0:05:10.63    \nframe=  459 fps=1.5 q=34.0 size=   11520KiB time=00:00:09.18 bitrate=10280.2kbits/s speed=0.0295x elapsed=0:05:11.14    \nframe=  461 fps=1.5 q=39.0 size=   11520KiB time=00:00:09.22 bitrate=10235.6kbits/s speed=0.0296x elapsed=0:05:11.66    \nframe=  462 fps=1.5 q=38.0 size=   11520KiB time=00:00:09.24 bitrate=10213.4kbits/s speed=0.0296x elapsed=0:05:12.18    \nframe=  463 fps=1.5 q=38.0 size=   11520KiB time=00:00:09.26 bitrate=10191.3kbits/s speed=0.0296x elapsed=0:05:12.70    \nframe=  464 fps=1.5 q=38.0 size=   11520KiB time=00:00:09.28 bitrate=10169.4kbits/s speed=0.0296x elapsed=0:05:13.22    \nframe=  466 fps=1.5 q=37.0 size=   11520KiB time=00:00:09.32 bitrate=10125.7kbits/s speed=0.0297x elapsed=0:05:13.72    \nframe=  467 fps=1.5 q=37.0 size=   11520KiB time=00:00:09.34 bitrate=10104.1kbits/s speed=0.0297x elapsed=0:05:14.24    \nframe=  468 fps=1.5 q=37.0 size=   11520KiB time=00:00:09.36 bitrate=10082.5kbits/s speed=0.0297x elapsed=0:05:14.76    \nframe=  469 fps=1.5 q=38.0 size=   11520KiB time=00:00:09.38 bitrate=10061.0kbits/s speed=0.0298x elapsed=0:05:15.27    \nframe=  470 fps=1.5 q=38.0 size=   11520KiB time=00:00:09.40 bitrate=10039.6kbits/s speed=0.0298x elapsed=0:05:15.79    \nframe=  470 fps=1.5 q=38.0 size=   11520KiB time=00:00:09.40 bitrate=10039.6kbits/s speed=0.0297x elapsed=0:05:16.31    \nframe=  472 fps=1.5 q=32.0 size=   11520KiB time=00:00:09.44 bitrate=9997.0kbits/s speed=0.0298x elapsed=0:05:16.82    \nframe=  473 fps=1.5 q=32.0 size=   11520KiB time=00:00:09.46 bitrate=9975.9kbits/s speed=0.0298x elapsed=0:05:17.34    \nframe=  474 fps=1.5 q=33.0 size=   11520KiB time=00:00:09.48 bitrate=9954.8kbits/s speed=0.0298x elapsed=0:05:17.85    \nframe=  475 fps=1.5 q=33.0 size=   11520KiB time=00:00:09.50 bitrate=9933.9kbits/s speed=0.0298x elapsed=0:05:18.37    \nframe=  476 fps=1.5 q=34.0 size=   11520KiB time=00:00:09.52 bitrate=9913.0kbits/s speed=0.0299x elapsed=0:05:18.89    \nframe=  476 fps=1.5 q=34.0 size=   11520KiB time=00:00:09.52 bitrate=9913.0kbits/s speed=0.0298x elapsed=0:05:19.39    \nframe=  476 fps=1.5 q=34.0 size=   11520KiB time=00:00:09.52 bitrate=9913.0kbits/s speed=0.0298x elapsed=0:05:19.92    \nframe=  476 fps=1.5 q=34.0 size=   11520KiB time=00:00:09.52 bitrate=9913.0kbits/s speed=0.0297x elapsed=0:05:20.42    \nframe=  476 fps=1.5 q=34.0 size=   11520KiB time=00:00:09.52 bitrate=9913.0kbits/s speed=0.0297x elapsed=0:05:20.94    \nframe=  476 fps=1.5 q=34.0 size=   11520KiB time=00:00:09.52 bitrate=9913.0kbits/s speed=0.0296x elapsed=0:05:21.46    \nframe=  476 fps=1.5 q=34.0 size=   11520KiB time=00:00:09.52 bitrate=9913.0kbits/s speed=0.0296x elapsed=0:05:21.98    \nframe=  476 fps=1.5 q=34.0 size=   11520KiB time=00:00:09.52 bitrate=9913.0kbits/s speed=0.0295x elapsed=0:05:22.49    \nframe=  476 fps=1.5 q=34.0 size=   11520KiB time=00:00:09.52 bitrate=9913.0kbits/s speed=0.0295x elapsed=0:05:23.01    \nframe=  476 fps=1.5 q=34.0 size=   11520KiB time=00:00:09.52 bitrate=9913.0kbits/s speed=0.0294x elapsed=0:05:23.52    \nframe=  476 fps=1.5 q=34.0 size=   11520KiB time=00:00:09.52 bitrate=9913.0kbits/s speed=0.0294x elapsed=0:05:24.04    \nframe=  476 fps=1.5 q=34.0 size=   11520KiB time=00:00:09.52 bitrate=9913.0kbits/s speed=0.0293x elapsed=0:05:24.56    \nframe=  476 fps=1.5 q=34.0 size=   11520KiB time=00:00:09.52 bitrate=9913.0kbits/s speed=0.0293x elapsed=0:05:25.07    \nframe=  476 fps=1.5 q=34.0 size=   11520KiB time=00:00:09.52 bitrate=9913.0kbits/s speed=0.0292x elapsed=0:05:25.58    \nframe=  476 fps=1.5 q=34.0 size=   11520KiB time=00:00:09.52 bitrate=9913.0kbits/s speed=0.0292x elapsed=0:05:26.10    \nframe=  476 fps=1.5 q=34.0 size=   11520KiB time=00:00:09.52 bitrate=9913.0kbits/s speed=0.0291x elapsed=0:05:26.62    \nframe=  476 fps=1.5 q=34.0 size=   11520KiB time=00:00:09.52 bitrate=9913.0kbits/s speed=0.0291x elapsed=0:05:27.14    \nframe=  476 fps=1.5 q=34.0 size=   11520KiB time=00:00:09.52 bitrate=9913.0kbits/s speed=0.0291x elapsed=0:05:27.65    \nframe=  476 fps=1.5 q=34.0 size=   11520KiB time=00:00:09.52 bitrate=9913.0kbits/s speed=0.029x elapsed=0:05:28.17    \nframe=  476 fps=1.4 q=34.0 size=   11520KiB time=00:00:09.52 bitrate=9913.0kbits/s speed=0.029x elapsed=0:05:28.69    \nframe=  476 fps=1.4 q=34.0 size=   11520KiB time=00:00:09.52 bitrate=9913.0kbits/s speed=0.0289x elapsed=0:05:29.21    \nframe=  476 fps=1.4 q=34.0 size=   11520KiB time=00:00:09.52 bitrate=9913.0kbits/s speed=0.0289x elapsed=0:05:29.73    \nframe=  476 fps=1.4 q=34.0 size=   11520KiB time=00:00:09.52 bitrate=9913.0kbits/s speed=0.0288x elapsed=0:05:30.24    \nframe=  476 fps=1.4 q=34.0 size=   11520KiB time=00:00:09.52 bitrate=9913.0kbits/s speed=0.0288x elapsed=0:05:30.76    \nframe=  476 fps=1.4 q=34.0 size=   11520KiB time=00:00:09.52 bitrate=9913.0kbits/s speed=0.0287x elapsed=0:05:31.27    \nframe=  476 fps=1.4 q=34.0 size=   11520KiB time=00:00:09.52 bitrate=9913.0kbits/s speed=0.0287x elapsed=0:05:31.78    \nframe=  476 fps=1.4 q=34.0 size=   11520KiB time=00:00:09.52 bitrate=9913.0kbits/s speed=0.0286x elapsed=0:05:32.30    \nframe=  476 fps=1.4 q=34.0 size=   11520KiB time=00:00:09.52 bitrate=9913.0kbits/s speed=0.0286x elapsed=0:05:32.81    \nframe=  476 fps=1.4 q=34.0 size=   11520KiB time=00:00:09.52 bitrate=9913.0kbits/s speed=0.0286x elapsed=0:05:33.33    \nframe=  476 fps=1.4 q=34.0 size=   11520KiB time=00:00:09.52 bitrate=9913.0kbits/s speed=0.0285x elapsed=0:05:33.85    \n[out#0/webm @ 000001e104dd6d00] video:15165KiB audio:0KiB subtitle:0KiB other streams:0KiB global headers:0KiB muxing overhead: 0.028966%\nframe=  500 fps=1.5 q=35.0 Lsize=   15169KiB time=00:00:10.00 bitrate=12426.6kbits/s speed=0.0299x elapsed=0:05:33.96    \n",
  "seconds": 336.04392313957214,
  "probe_out": {}
}